<?xml version="1.0" encoding="utf-8"?>
<!-- Generator: Adobe Illustrator 19.2.1, SVG Export Plug-In . SVG Version: 6.00 Build 0)  -->
<svg version="1.1" id="layer" xmlns="http://www.w3.org/2000/svg" xmlns:xlink="http://www.w3.org/1999/xlink" x="0px" y="0px"
	 viewBox="0 0 652 652" style="enable-background:new 0 0 652 652;" xml:space="preserve">
<style type="text/css">
	.st0{fill:#92C83E;}
	.st1{fill:#FFFFFF;}
	.st2{fill-rule:evenodd;clip-rule:evenodd;fill:#FFFFFF;}
</style>
<g>
	<path class="st0" d="M152,571.8c-53.9,0-98-43.9-98-97.6V169.4c0-53.7,44.1-97.6,98-97.6h336.5c53.9,0,98,43.9,98,97.6v304.8
		c0,53.7-44.1,97.6-98,97.6H152z"/>
	<path class="st1" d="M318.2,375c47.3,0,86.9-33.1,96.9-77.4c-28.7-16.1-61.7-25.2-96.9-25.2c-35.2,0-68.3,9.2-97,25.2
		C231.2,341.9,270.8,375,318.2,375"/>
	<polygon class="st2" points="355.8,260.2 327,260.2 327,202.4 340.3,202.4 340.3,247.6 355.8,247.6 	"/>
	<path class="st2" d="M318,223c0,10.5-7.6,16-17.7,16c-9.9,0-17.8-5.4-17.8-16v-42.3h13.2v42.8c0,3,2,5,4.5,5c3.1,0,4.5-2.5,4.5-5
		v-42.8H318V223z"/>
	<path class="st2" d="M439.4,263.8c0,67-54.3,121.2-121.2,121.2c-66.9,0-121.2-54.3-121.2-121.2c0-66.9,54.3-121.2,121.2-121.2
		C385.2,142.6,439.4,196.9,439.4,263.8 M318.2,164.4c-54.9,0-99.4,44.5-99.4,99.4c0,54.9,44.5,99.5,99.4,99.5
		c54.9,0,99.4-44.5,99.4-99.5C417.7,208.9,373.1,164.4,318.2,164.4"/>
	<path class="st0" d="M298.3,355.5L298.3,355.5c0-15,5-45.2,39.5-56.4c-31.7,18.7-32.8,48.8-32.7,54.7l13-2.3
		c15.7-2.8,28.5-17.7,28.5-33.3v-28l-28.2,5c-15.7,2.8-29.2,18.5-29.2,35.3V352v4.3v31.2c2.4,0.8,6.6,0.4,9.1,0.9V355.5z"/>
	<path class="st1" d="M127.7,498.2c-16,0-24.6-9.1-24.6-23.6c0-15.8,9.4-26.5,27-26.5c5,0,9.9,0.9,13.8,2.1l-1.9,8.6
		c-3.7-1.5-7.9-2.3-12.5-2.3c-11.5,0-16.3,7.7-16.3,16.9c0,10.3,5.4,16.4,15.5,16.4c2.3,0,4.3-0.3,6.2-0.9V472h9.4v23.2
		C139.5,497.1,133.5,498.2,127.7,498.2"/>
	<path class="st1" d="M177.5,497.5l-13.1-20.1h-0.8v20.1h-9.4v-48.6c3.8-0.2,8.4-0.3,14-0.3c10.7,0,17.6,3.7,17.6,13.7
		c0,7.2-5.2,12.4-12,13.5c1.4,1.8,2.7,3.6,3.9,5.3l11.3,16.4H177.5z M167.2,456.2c-1.4,0-2.7,0.1-3.7,0.2v14.1
		c0.6,0.1,1.9,0.1,3.4,0.1c5.6,0,9.1-2.9,9.1-7.4C176,458.5,173.1,456.2,167.2,456.2"/>
	<polygon class="st1" points="195.5,497.5 195.5,448.8 221.9,448.8 221.9,456.7 204.8,456.7 204.8,468.7 221,468.7 221,476.3 
		204.8,476.3 204.8,489.4 221.9,489.4 221.9,497.5 	"/>
	<polygon class="st1" points="231.2,497.5 231.2,448.8 257.6,448.8 257.6,456.7 240.6,456.7 240.6,468.7 256.8,468.7 256.8,476.3 
		240.6,476.3 240.6,489.4 257.6,489.4 257.6,497.5 	"/>
	<path class="st1" d="M294.8,497.5l-15.1-26.8c-1.8-3.5-3.2-6.5-4.3-9.5c0.3,4.3,0.5,16.1,0.5,23.1v13.2h-9v-48.6h12.4L294,475
		c1.7,3,3.4,6.6,4.7,9.7c-0.3-4.9-0.5-16.9-0.5-23.6v-12.2h9v48.6H294.8z"/>
	<path class="st1" d="M339.4,498.2c-16,0-24.6-9.1-24.6-23.6c0-15.8,9.4-26.5,27-26.5c5,0,9.9,0.9,13.8,2.1l-1.9,8.6
		c-3.7-1.5-7.9-2.3-12.5-2.3c-11.5,0-16.3,7.7-16.3,16.9c0,10.3,5.4,16.4,15.5,16.4c2.3,0,4.3-0.3,6.2-0.9V472h9.4v23.2
		C351.2,497.1,345.3,498.2,339.4,498.2"/>
	<path class="st1" d="M384.7,498.3c-15.3,0-18.8-8.4-18.8-17.7v-31.8h9.4V480c0,6.1,2,10.4,10.1,10.4c7.2,0,10.2-3,10.2-11.3v-30.3
		h9.3v29.8C404.9,491.9,397.6,498.3,384.7,498.3"/>
	<path class="st1" d="M442.5,497.5l-3.3-9.9h-18.4l-3.4,9.9h-9.4l16.8-48.6h11l17.1,48.6H442.5z M431.8,465.6
		c-0.8-2.4-1.4-4.5-1.9-6.7h-0.1c-0.6,2.2-1.1,4.3-1.9,6.7l-5,14.5h13.8L431.8,465.6z"/>
	<path class="st1" d="M481.2,497.5l-13.1-20.1h-0.8v20.1h-9.4v-48.6c3.8-0.2,8.4-0.3,14-0.3c10.7,0,17.6,3.7,17.6,13.7
		c0,7.2-5.2,12.4-12,13.5c1.4,1.8,2.7,3.6,3.9,5.3l11.3,16.4H481.2z M471,456.2c-1.4,0-2.7,0.1-3.7,0.2v14.1
		c0.6,0.1,1.9,0.1,3.4,0.1c5.6,0,9.1-2.9,9.1-7.4C479.8,458.5,476.9,456.2,471,456.2"/>
	<path class="st1" d="M512.8,497.8c-5,0-9.4-0.2-13.6-0.4v-48.5c3.8-0.1,9.7-0.4,15.7-0.4c15.1,0,24.6,6.7,24.6,23.8
		C539.6,489,528.6,497.8,512.8,497.8 M514.3,456.4c-2.2,0-4.2,0.1-5.7,0.2v32.8c1.3,0.2,3.2,0.4,5.1,0.4c9.2,0,15.8-5.2,15.8-16.7
		C529.5,462.6,525.4,456.4,514.3,456.4"/>
</g>
</svg>
