<svg id="Group-3" xmlns="http://www.w3.org/2000/svg" xmlns:xlink="http://www.w3.org/1999/xlink" width="850.394" height="330.733" viewBox="0 0 850.394 330.733">
  <defs>
    <clipPath id="clip-path">
      <rect id="Rectangle_3" data-name="Rectangle 3" width="850.394" height="330.733" fill="none"/>
    </clipPath>
  </defs>
  <path id="Path_1" data-name="Path 1" d="M31.493,271.335,16.818,295.9H8.162V271.335H0v58.4H8.162v-26.8h8.656l15.51,26.8h9.228L23.572,299.21v-.161L40.48,271.335Z" fill="#fff"/>
  <rect id="Rectangle_1" data-name="Rectangle 1" width="8.173" height="58.403" transform="translate(117.374 271.335)" fill="#fff"/>
  <path id="Path_2" data-name="Path 2" d="M199.872,271.335v7.117h19.959v51.286h8.162V278.452h19.959v-7.117Z" fill="#fff"/>
  <g id="Group_1" data-name="Group 1" clip-path="url(#clip-path)">
    <path id="Path_3" data-name="Path 3" d="M347.111,270.344c14.023,0,21.19,7.7,21.19,7.7l-4.031,6.122a26.5,26.5,0,0,0-16.817-6.368c-13.028,0-21.531,9.927-21.531,22.331,0,12.494,8.665,23.079,21.612,23.079a26.333,26.333,0,0,0,17.973-7.609l4.363,5.87a31.145,31.145,0,0,1-22.588,9.269c-17.49,0-29.774-13.4-29.774-30.529,0-16.958,12.706-29.86,29.6-29.86" fill="#fff"/>
    <path id="Path_4" data-name="Path 4" d="M447.021,271.335h8.162v25.644h30.186V271.335h8.162v58.4h-8.162V304.1H455.183v25.642h-8.162Z" fill="#fff"/>
    <path id="Path_5" data-name="Path 5" d="M575.377,271.335h33.815v7.117H583.549v18.275H604.4v7.117H583.549v18.777H610.59v7.117H575.377Z" fill="#fff"/>
    <path id="Path_6" data-name="Path 6" d="M688.644,271.335h8.082l25.9,37.968c2.131,3.145,4.856,8.443,4.856,8.443h.17s-.582-5.212-.582-8.443V271.335h8.162v58.4h-8l-25.975-37.886c-2.131-3.227-4.865-8.525-4.865-8.525h-.17s.582,5.218.582,8.525v37.886h-8.162Z" fill="#fff"/>
    <path id="Path_7" data-name="Path 7" d="M817.242,316.826s6.191,6.293,14.857,6.293c5.438,0,10.053-3.061,10.053-8.6,0-12.661-28.207-9.931-28.207-27.875,0-9.1,7.84-16.3,18.818-16.3,10.795,0,16.485,5.872,16.485,5.872L845.539,283s-5.367-5.052-12.776-5.052c-6.193,0-10.566,3.891-10.566,8.524,0,12.074,28.2,8.857,28.2,27.794,0,9.018-6.925,16.466-18.466,16.466a27.224,27.224,0,0,1-19.3-7.694Z" fill="#fff"/>
    <path id="Path_8" data-name="Path 8" d="M292.559,2.327h-8.887V211.2H396.328v-8.59H292.559Z" fill="#fff"/>
    <rect id="Rectangle_2" data-name="Rectangle 2" width="8.887" height="208.871" transform="translate(432.886 2.327)" fill="#fff"/>
    <path id="Path_9" data-name="Path 9" d="M601.572,122.46a4.078,4.078,0,0,0,4.443,4.151h42.944v59.035c-4.625,2.865-9.369,5.508-14.123,7.871a107.668,107.668,0,0,1-16.094,6.382,116.422,116.422,0,0,1-18.4,3.971,165.953,165.953,0,0,1-22.234,1.352,99.517,99.517,0,0,1-37.152-6.71,79.888,79.888,0,0,1-28.619-19.33A87.924,87.924,0,0,1,493.8,148.3c-4.371-12.161-6.593-26.133-6.593-41.53s2.242-29.38,6.675-41.521A86.271,86.271,0,0,1,512.76,34.368a81.636,81.636,0,0,1,29.552-19.34c11.531-4.461,24.658-6.719,38.992-6.719,11.42,0,21.141,1.11,28.922,3.311a96.754,96.754,0,0,1,19.139,7.328,58.138,58.138,0,0,1,10.877,7.2c3.809,3.424,5.408,4.113,6.764,4.113a4.512,4.512,0,0,0,3.619-2.048l1.347-2.84-1.437-1.279A100.169,100.169,0,0,0,636.2,13.336a85.572,85.572,0,0,0-15.682-7.5,91.97,91.97,0,0,0-18.033-4.415A146.7,146.7,0,0,0,581.306,0c-15.669,0-30.025,2.508-42.621,7.456a91.091,91.091,0,0,0-32.568,21.416,94.181,94.181,0,0,0-20.656,33.735c-4.737,13.088-7.127,27.945-7.127,44.16,0,16.309,2.39,31.216,7.127,44.306a96.683,96.683,0,0,0,20.263,33.7,88,88,0,0,0,31.555,21.371c12.174,4.9,25.924,7.388,40.832,7.388a167.1,167.1,0,0,0,24.154-1.629,134.352,134.352,0,0,0,20.477-4.593,114.253,114.253,0,0,0,17.723-7.233,159.427,159.427,0,0,0,15.992-9.449l1.1-.684v-71.63H601.572Z" fill="#fff"/>
    <path id="Path_10" data-name="Path 10" d="M841.2,2.327V193.818L702.295,4.744a4.964,4.964,0,0,0-4.323-2.417h-3.859V211.2h8.313V18.966l139.7,190.071a4.539,4.539,0,0,0,3.82,2.161h3.559V2.327Z" fill="#fff"/>
    <path id="Path_11" data-name="Path 11" d="M128.069,2.643V165.676l119.043,45.416Z" fill="#fff"/>
    <path id="Path_12" data-name="Path 12" d="M110.725,34.4V159.16L19.632,193.917Zm8.318-31.76L0,211.1l119.043-45.418Z" fill="#fff"/>
  </g>
</svg>
