<?xml version="1.0" encoding="UTF-8"?> <svg xmlns="http://www.w3.org/2000/svg" id="Layer_1" version="1.1" viewBox="0 0 780.3 217.1"><g><path d="M0,142.5V2.6h76.3v31.4h-42.1v23.8h40.6v31.4h-40.6v53.3H0Z"></path><path d="M147.4,142.5l-32.3-45.2h-.4v45.2h-34.2V2.6h45.7c14.6,0,25.7,1.9,33.1,5.1,15.1,6.8,25.7,23.2,25.7,43.1s-13.2,40.3-34.8,44l38,47.6h-40.8ZM127.9,72.9c14.2,0,22.9-6.6,22.9-20s-9.1-18.9-22.5-18.9h-13.6v38.9h13.2Z"></path><path d="M188.8,142.5V2.6h77.7v31.4h-43.5v21.7h42.1v31.4h-42.1v24h43.5v31.4h-77.7Z"></path><path d="M273.5,142.5V2.6h77.7v31.4h-43.5v21.7h42.1v31.4h-42.1v24h43.5v31.4h-77.7Z"></path><path d="M356.3,142.5V2.6h47.6c17.4,0,31.2,3,41,8.5,19.8,11.3,32.3,32.9,32.3,61.4,0,46.1-27.2,69.9-70.9,69.9h-50.1ZM408,111.1c20.6,0,33.4-12.9,33.4-38.4s-12.7-38.7-33.3-38.7h-16.2v77.1h16.1Z"></path><path d="M481,75.8c0-43.3,31.2-75.8,73.7-75.8s73.9,31.6,73.9,71.6-32.1,73.5-72.2,73.5-75.4-28-75.4-69.3ZM592.9,72.7c0-21.9-15.7-41.4-38.2-41.4s-38,18.7-38,40.8,15.7,41.6,38.5,41.6,37.6-18.7,37.6-41Z"></path><path d="M747.5,142.5l.8-98.1-40.4,63.1-43.3-64,1.1,99h-32.9V2.6h38.9l36.1,57,33.4-57h39.1v139.8h-32.9Z"></path></g><g><g><path d="M92,216.3l-12-19.1h-.1v19.1h-11.3v-44.1h11.3v19.8h.1l12.5-19.8h11.8l-14.6,22,15.6,22.1h-13.2Z"></path><path d="M107.2,216.3v-44.1h11.3v44.1h-11.3Z"></path><path d="M130.6,216.3v-34.2h-8.7v-9.9h28.6v9.9h-8.6v34.2h-11.3Z"></path><path d="M182.5,188.9c-1.9-4.8-6.1-7.7-10.7-7.7-7,0-11.8,6-11.8,12.9s4.9,13.1,11.9,13.1,8.3-2.5,10.6-7.5h11.8c-2.7,10.6-11.9,17.3-22.3,17.3s-11.9-2.1-16.4-6.6c-4.8-4.6-6.8-10.2-6.8-16.9,0-11.7,10.1-22.2,22.7-22.2s11,1.7,15.4,5.4c4.2,3.6,6.7,7.6,7.5,12.2h-11.8Z"></path><path d="M222.3,216.3v-17.6h-14.4v17.6h-11.3v-44.1h11.3v16.6h14.4v-16.6h11.3v44.1h-11.3Z"></path><path d="M238,216.3v-44.1h24.5v9.9h-13.7v6.9h13.3v9.9h-13.3v7.6h13.7v9.9h-24.5Z"></path><path d="M293.3,216.3l-16.9-26.9.3,26.9h-10.8v-44.1h9.7l17.2,27.9-.5-27.9h10.8v44.1h-9.8Z"></path><path d="M324.9,185.1c-.5-3.2-1.8-4.3-4-4.3s-3.9,1.5-3.9,3.5,2.4,3.8,7.2,5.9c9.7,4.2,12.2,7.7,12.2,13.5,0,8.5-5.8,13.5-15.4,13.5s-15.9-5-15.9-14.5v-1h11.2c0,3.6,1.8,6,4.6,6s4.2-1.8,4.2-4.2c0-3.5-4.9-5.1-8.9-6.7-7.2-2.9-10.5-6.7-10.5-12.5s7.3-13,15.4-13,5.5.7,7.8,1.8c4.7,2.4,7,6,7,11.9h-11.1Z"></path><path d="M402,216.3l-6.6-28.5h-.1l-6.6,28.5h-10.2l-11.4-44.1h11.4l5.9,28.7h.1l6.5-28.7h8.6l6.4,28.8h.1l6-28.8h11.4l-11.7,44.1h-9.9Z"></path><path d="M447.6,216.3l-2.1-6.4h-15.3l-2.3,6.4h-12.1l17.7-44.1h8.9l17.5,44.1h-12.2ZM438,186h-.2c0,0-4.5,15-4.5,15h9.2l-4.5-15Z"></path><path d="M481.9,216.3l-10.2-14.2h-.1v14.2h-10.8v-44.1h14.4c4.6,0,8.1.6,10.4,1.6,4.8,2.1,8.1,7.3,8.1,13.6s-4.2,12.7-11,13.9l12,15h-12.9ZM475.8,194.4c4.5,0,7.2-2.1,7.2-6.3s-2.9-6-7.1-6h-4.3v12.3h4.2Z"></path><path d="M495.6,216.3v-44.1h15c5.5,0,9.8,1,12.9,2.7,6.3,3.6,10.2,10.4,10.2,19.4,0,14.5-8.6,22.1-22.4,22.1h-15.8ZM512,206.4c6.5,0,10.5-4.1,10.5-12.1s-4-12.2-10.5-12.2h-5.1v24.3h5.1Z"></path><path d="M558,216.3l-10.2-14.2h-.1v14.2h-10.8v-44.1h14.4c4.6,0,8.1.6,10.4,1.6,4.8,2.1,8.1,7.3,8.1,13.6s-4.2,12.7-11,13.9l12,15h-12.9ZM551.9,194.4c4.5,0,7.2-2.1,7.2-6.3s-2.9-6-7.1-6h-4.3v12.3h4.2Z"></path><path d="M570.9,195.3c0-13.6,9.8-23.9,23.2-23.9s23.3,10,23.3,22.6-10.1,23.2-22.8,23.2-23.8-8.8-23.8-21.9ZM606.2,194.3c0-6.9-4.9-13.1-12-13.1s-12,5.9-12,12.9,4.9,13.1,12.2,13.1,11.9-5.9,11.9-12.9Z"></path><path d="M620,216.3v-44.1h14.1c3.2,0,5.5.2,7,.5,5,1.1,9.2,5,9.2,11s-1.8,7.1-5.1,8.9c4.8,1.7,7.3,5.2,7.3,10.2s-1.8,8.1-5.1,10.4c-3.5,2.4-5.7,3-12.7,3h-14.7ZM635.3,188.9c2.8,0,4.3-1.2,4.3-3.5s-1.4-3.3-4.2-3.3h-4.5v6.9h4.5ZM636.6,206.4c3.2,0,5.1-1.4,5.1-4.2s-1.7-3.8-5.1-3.8h-5.8v8h5.8Z"></path><path d="M655,216.3v-44.1h24.5v9.9h-13.7v6.9h13.3v9.9h-13.3v7.6h13.7v9.9h-24.5Z"></path><path d="M700.2,185.1c-.5-3.2-1.8-4.3-4-4.3s-3.9,1.5-3.9,3.5,2.4,3.8,7.2,5.9c9.7,4.2,12.2,7.7,12.2,13.5,0,8.5-5.8,13.5-15.4,13.5s-15.9-5-15.9-14.5v-1h11.2c0,3.6,1.8,6,4.6,6s4.2-1.8,4.2-4.2c0-3.5-4.9-5.1-8.9-6.7-7.2-2.9-10.5-6.7-10.5-12.5s7.3-13,15.4-13,5.5.7,7.8,1.8c4.7,2.4,7,6,7,11.9h-11.1Z"></path></g><path d="M349.3,210v-10h-10v-9.3h10v-10h9.3v10h10v9.3h-10v10h-9.3Z"></path></g></svg> 