<svg width="191" height="55" viewBox="0 0 191 55" fill="none" xmlns="http://www.w3.org/2000/svg">
<path d="M14.0562 38.8586H16.7827V12.5952H14.0562V11.8955H16.5477C19.3682 11.8955 21.5307 11.8955 22.2358 10.6826V30.2285L26.4667 26.8698C28.159 25.517 29.7103 24.2108 29.7103 23.6044C29.7103 22.9979 28.8172 22.9513 28.018 22.9513H27.0308V22.2516H35.6336V22.9513H35.2575C33.4241 22.9513 32.3429 23.5111 30.6976 24.6773L27.3129 27.103L34.7404 38.8586H37.0909V39.5583H26.0436V38.8586H28.4411L23.317 30.3218L22.1888 31.1615V38.9052H24.2572V39.605H14.0562V38.8586Z" fill="white"/>
<path d="M55.8001 36.4328C55.8001 37.6457 55.9881 38.3921 56.6933 38.3921C57.6335 38.3921 58.0566 37.2259 58.0566 36.1996H58.7617C58.7617 38.532 57.1164 40.0248 54.5308 40.0248C52.7445 40.0248 51.2872 39.1851 50.582 37.5524C49.5478 39.4184 46.8213 40.0248 45.2699 40.0248C42.2143 40.0248 39.1587 38.672 39.1587 35.22C39.1587 31.1148 43.0605 30.1819 46.6802 29.902L50.535 29.5754V26.2633C50.535 23.8843 50.1589 22.4381 47.1503 22.4381C45.787 22.4381 43.5306 22.7647 43.5306 23.6044C43.5776 24.2574 45.552 24.1641 45.552 26.0301C45.552 27.3829 44.6588 28.4092 43.1545 28.4092C41.3681 28.4092 40.569 27.243 40.569 25.8435C40.569 23.651 43.4366 21.7384 47.4324 21.7384C51.5222 21.7384 55.7531 22.858 55.7531 27.3363L55.8001 36.4328ZM50.535 30.3218L47.4324 30.6484C44.8469 30.9282 44.6118 32.2811 44.6118 34.3803C44.6118 36.4328 44.7528 38.8586 47.4324 38.8586C49.3128 38.8586 50.488 36.9926 50.535 34.8934V30.3218Z" fill="white"/>
<path d="M61.0186 38.8586H63.7451V12.5952H61.0186V11.8955H63.5101C66.3306 11.8955 68.4931 11.8955 69.1982 10.6826V24.8639H69.2922C70.4205 22.7647 72.0658 21.7851 74.4163 21.7851C78.13 21.7851 83.019 24.6307 83.019 30.9749C83.019 34.3336 80.1985 40.0248 74.4163 40.0248C72.2068 40.0248 69.9974 38.8586 69.1042 36.5728H69.0102V40.0248C68.7281 39.8382 68.117 39.6983 67.3649 39.6516C66.5657 39.5583 65.5315 39.5583 64.3562 39.5583H61.0186V38.8586ZM69.1982 33.7272C69.1982 37.2725 71.5017 39.0452 73.4761 39.0452C75.6855 39.0452 77.0488 37.7856 77.0488 33.7272V28.7824C77.0488 23.6977 75.4975 22.4381 73.6171 22.4381C70.9376 22.4381 69.2452 25.4237 69.2452 27.6162V33.7272H69.1982Z" fill="white"/>
<path d="M95.5235 21.785C100.742 21.785 104.925 25.5169 104.925 30.8816C104.925 36.2462 100.742 39.9781 95.5235 39.9781C90.3054 39.9781 86.1216 36.2462 86.1216 30.8816C86.1216 25.5169 90.3054 21.785 95.5235 21.785ZM92.2798 35.1733C92.2798 38.1122 93.5021 39.325 95.5235 39.325C97.5449 39.325 98.7672 38.1122 98.7672 35.1733V26.6832C98.7672 23.7443 97.5449 22.5314 95.5235 22.5314C93.5021 22.5314 92.2798 23.7443 92.2798 26.6832V35.1733Z" fill="white"/>
<path d="M117.524 21.785C122.743 21.785 126.926 25.5169 126.926 30.8816C126.926 36.2462 122.743 39.9781 117.524 39.9781C112.306 39.9781 108.123 36.2462 108.123 30.8816C108.123 25.5169 112.306 21.785 117.524 21.785ZM114.281 35.1733C114.281 38.1122 115.503 39.325 117.524 39.325C119.546 39.325 120.768 38.1122 120.768 35.1733V26.6832C120.768 23.7443 119.546 22.5314 117.524 22.5314C115.503 22.5314 114.281 23.7443 114.281 26.6832V35.1733Z" fill="white"/>
<path d="M140.23 11.8955H143.285C146.106 11.8955 148.268 11.8955 148.974 10.6826V38.8119H151.7V39.5117H148.974C147.563 39.5117 144.884 39.5117 143.52 39.9782V37.1326H143.426C142.486 38.9052 141.029 39.9782 138.443 39.9782C134.495 39.9782 130.076 36.6194 130.076 31.1615C130.076 26.1234 133.178 21.7384 138.49 21.7384C140.982 21.7384 142.486 22.858 143.379 24.7706H143.473V12.5952H140.183L140.23 11.8955ZM143.52 27.4762C143.52 25.2837 141.922 22.718 139.243 22.718C136.704 22.718 136.046 24.9105 136.046 27.5695V33.2141C136.046 37.2259 137.033 39.0452 139.431 39.0452C142.063 39.0452 143.567 36.6194 143.567 34.3336V27.4762H143.52Z" fill="white"/>
<path d="M153.862 38.8586H156.589V12.5952H153.862V11.8955H156.354C159.174 11.8955 161.337 11.8955 162.042 10.7292V38.8586H164.769V39.5583H153.862V38.8586Z" fill="white"/>
<path d="M172.666 30.042V33.3541C172.666 36.013 173.042 39.0919 176.756 39.0919C179.859 39.0919 182.115 36.8061 183.008 33.1675H183.714C182.82 37.0393 180.423 40.0248 175.581 40.0248C170.504 40.0248 166.743 36.1996 166.743 31.1149C166.743 25.7969 170.786 21.8318 175.44 21.8318C179.577 21.7385 183.573 25.8436 183.573 30.0886L172.666 30.042ZM177.649 29.3422V25.9835C177.649 23.8377 177.038 22.5315 175.158 22.5315C173.795 22.5315 172.666 23.3712 172.666 25.9835V29.3422H177.649Z" fill="white"/>
<path d="M8.60266 4.71154H3.9017V0H8.64967L8.60266 4.71154ZM4.74788 3.87186H7.75649V0.886331H4.74788V3.87186Z" fill="white"/>
<path d="M8.60282 12.4086H3.90186V7.69702H8.64982L8.60282 12.4086ZM4.74803 11.5222H7.75664V8.5367H4.74803V11.5222Z" fill="white"/>
<path d="M12.5043 8.53686H7.75635V3.82532H12.5043V8.53686ZM8.60252 7.69718H11.6111V4.71164H8.60252V7.69718Z" fill="white"/>
<path d="M4.74797 8.53686H0V3.82532H4.74797V8.53686ZM0.893183 7.69718H3.9018V4.71164H0.893183V7.69718Z" fill="white"/>
<path d="M134.307 47.2086H135.2V51.8269L139.666 47.2086H140.794L137.456 50.5673L140.935 54.9057H139.854L136.845 51.1738L135.2 52.8531V54.9057H134.307V47.2086Z" fill="white"/>
<path d="M142.58 47.2086H143.473V54.9057H142.58V47.2086Z" fill="white"/>
<path d="M147.892 48.0016H145.26V47.2086H151.371V48.0016H148.738V54.9057H147.845L147.892 48.0016Z" fill="white"/>
<path d="M152.17 51.0807C152.17 48.8882 153.815 47.0688 156.119 47.0688C157.529 47.0688 158.375 47.582 159.127 48.2817L158.516 48.9348C157.858 48.3284 157.106 47.8619 156.072 47.8619C154.332 47.8619 153.063 49.2613 153.063 51.034C153.063 52.8067 154.379 54.2061 156.072 54.2061C157.153 54.2061 157.858 53.7863 158.563 53.0866L159.127 53.6464C158.328 54.4394 157.435 54.9992 156.025 54.9992C153.815 55.0458 152.17 53.2732 152.17 51.0807Z" fill="white"/>
<path d="M160.585 47.2086H161.478V50.614H165.944V47.2086H166.837V54.9057H165.944V51.4537H161.478V54.9057H160.585V47.2086Z" fill="white"/>
<path d="M168.905 47.2086H174.546V48.0016H169.798V50.614H174.029V51.407H169.798V54.1127H174.593V54.9057H168.905V47.2086Z" fill="white"/>
<path d="M176.474 47.2086H177.273L182.162 53.4129V47.2086H183.008V54.9057H182.35L177.32 48.5614V54.9057H176.474V47.2086Z" fill="white"/>
<path d="M186.017 37.0858C186.017 35.733 187.098 34.6134 188.509 34.6134C189.919 34.6134 191 35.733 191 37.0858C191 38.4386 189.919 39.5582 188.509 39.5582C187.098 39.5582 186.017 38.4386 186.017 37.0858ZM190.765 37.0858C190.765 35.8263 189.825 34.8466 188.556 34.8466C187.286 34.8466 186.299 35.8729 186.299 37.0858C186.299 38.2987 187.239 39.3249 188.509 39.3249C189.778 39.3249 190.765 38.2987 190.765 37.0858ZM187.521 35.6863H188.697C189.026 35.6863 189.308 35.7796 189.496 35.9662C189.637 36.1062 189.731 36.2928 189.731 36.526C189.731 36.9458 189.496 37.2257 189.12 37.319L189.825 38.2987H189.214L188.603 37.4123H187.991V38.2987H187.521V35.6863ZM188.65 36.9925C188.979 36.9925 189.167 36.8526 189.167 36.5727C189.167 36.2928 188.979 36.1528 188.65 36.1528H187.991V36.9925H188.65Z" fill="white"/>
</svg>
