<?xml version="1.0" encoding="UTF-8"?> <!-- Generator: Adobe Illustrator 25.0.1, SVG Export Plug-In . SVG Version: 6.00 Build 0) --> <svg xmlns="http://www.w3.org/2000/svg" xmlns:xlink="http://www.w3.org/1999/xlink" version="1.1" id="Layer_1" x="0px" y="0px" viewBox="0 0 500.7 76.5" style="enable-background:new 0 0 500.7 76.5;" xml:space="preserve"> <g> <path d="M351.3,75h1.3L354,72h-2.1c-3-0.6-4.9-2.2-6-5.6c-1.1-3.4-1.7-8.4-1.7-15.2V1.5h-14l-21.9,54.6L282.5,1.5h-13v73.4h5.3 V14.4l28.6,60.5h3.5l23.4-58.3v34.7c0,8.4,1.7,14.5,5,18.2C338.3,72.8,342,75.1,351.3,75L351.3,75z"></path> <path d="M87.3,1.1h13.9v59.1c0,3.3,0.4,6,1.3,8.1c0.9,2,2.9,3.1,6.1,3.1h9.1v3.3H96.9c-1.9,0-3.4-0.2-4.6-0.7 c-1.2-0.4-2.2-1.2-3-2.3c-0.7-1.1-1.3-2.6-1.5-4.4c-0.3-1.9-0.4-4.2-0.4-7V1.1z"></path> <path d="M226.9,76.5c-3.9,0-7.8-0.3-11.7-0.9c-3.9-0.6-7.3-1.4-10.4-2.6c-3.1-1.1-5.6-2.5-7.5-4.2c-1.9-1.7-2.9-3.5-2.9-5.6V50.4 h4.3c1.5,7.6,4.6,13.1,9.2,16.3c4.6,3.2,10.9,4.8,18.9,4.8c5.4,0,9.8-0.9,13.1-2.7c3.3-1.8,4.9-4.5,4.9-8c0-3.2-1.3-5.8-3.9-7.9 c-2.6-2.1-6.2-4.2-10.8-6.3l-17.7-8.1c-6.5-2.9-11.1-5.9-13.8-9c-2.7-3.1-4-6.6-4-10.7c0-5.8,2.9-10.4,8.7-13.8 C209,1.7,216.9,0,226.7,0c3.9,0,10.2,0.3,14.1,0.9c3.9,0.6,7.3,1.4,10.4,2.6c3.1,1.1,5.6,2.5,7.5,4.2c1.9,1.7,2.9,3.5,2.9,5.6v12.9 h-4.3c-1.6-7.6-4.7-13.1-9.1-16.3c-4.5-3.2-12.7-4.8-19.9-4.8c-5.1,0-9.2,1-12.2,2.9c-3,1.9-4.5,4.5-4.5,7.8c0,1.5,0.4,2.9,1.1,4.1 c0.7,1.2,1.7,2.3,3,3.4c1.3,1,2.8,2,4.7,3c1.8,1,3.9,1.9,6.2,3l17.7,8c6.5,2.9,11.3,5.8,14.3,8.6c3,2.8,4.5,6.3,4.5,10.3 c0,6.3-3.1,11.3-9.3,15C247.3,74.7,238.4,76.5,226.9,76.5"></path> <path d="M373.9,49.4h25.3l-12.3-29L373.9,49.4z M419.5,60.6c1.3,3.3,3,5.9,4.9,7.8c1.9,1.9,4.2,3,5.6,3.3v2.8 c-0.4,0.2-4.6,0.6-9.9,0.1c-2.1-0.2-4-1-6-2c-2-1-3.8-2.4-5.6-4.3c-1.7-1.9-3.3-4.4-4.6-7.6l-2.6-6.2h-29.7l-9.2,20.2h-5.6 l32.8-73.4h5L419.5,60.6z"></path> </g> <polygon points="188.5,54.4 188.5,1.2 183.2,1.2 183.2,48.9 "></polygon> <g> <path d="M171.8,41.6L171.8,41.6L139,7.9c-1.9-2.2-4.4-3.9-7.4-5c-3-1.1-6.9-1.7-11.6-1.7h-8.8v3.3h0.6c2.2,0,4,0.3,5.5,0.8 c1.5,0.5,2.6,1.2,3.5,2.1c0.9,0.9,1.5,1.9,1.8,3.2c0.3,1.2,0.5,2.5,0.5,3.9v60.1h5.4v-56L182.7,75h5.8c0,0,0.6-10.8-3.5-17.8 c-3.8-6.7-12-14.3-12-14.3L171.8,41.6z"></path> </g> <polygon points="500.6,54.4 500.6,1.2 495.3,1.2 495.3,48.9 "></polygon> <g> <path d="M484,41.6L484,41.6L451.1,7.9c-1.9-2.2-4.4-3.9-7.4-5c-3-1.1-6.9-1.7-11.6-1.7h-8.8v3.3h0.6c2.2,0,4,0.3,5.5,0.8 c1.5,0.5,2.6,1.2,3.5,2.1c0.9,0.9,1.5,1.9,1.8,3.2c0.3,1.2,0.5,2.5,0.5,3.9v60.1h5.4v-56L494.9,75h5.8c0,0,0.6-10.8-3.5-17.8 c-3.8-6.7-12-14.3-12-14.3L484,41.6z"></path> <path d="M78.3,69.2c-1.6-0.7-3.2-1.5-4.8-2.6c-1.7-1.1-3.4-2.2-5.1-3.5c-1.8-1.3-3.4-2.7-4.9-4.2L35.8,32.7l17.8-20.1 c2.7-3.1,5.9-5.1,9.6-6.2c3.7-1.1,7.8-1.6,18.7-1.6V1.1H67.1c-2.4,0-4.6,0.3-6.6,0.9c-2,0.6-3.9,1.5-5.6,2.5 c-1.8,1.1-3.4,2.3-4.8,3.7c-1.5,1.4-2.9,2.8-4.1,4.4L25.3,35.9V15.2c0-2.7-0.2-4.9-0.5-6.8c-0.4-1.8-1-3.3-1.8-4.4 c-0.8-1.1-2-1.9-3.3-2.3c-1.4-0.5-3.1-0.7-5.2-0.7H0v3.3h1.2c3.6,0,5.9,1,6.9,3c1,2,1.5,4.6,1.5,7.9l0,12.4l15.7,15.1v0L44.5,61 c2.9,2.8,5.6,5,8.1,6.6c2.6,1.7,5,3,7.4,4c2.4,1,4.7,1.6,6.9,2c2.2,0.3,4.5,0.5,6.7,0.5c1.8,0,3.5-0.1,5.1-0.3 c1.6-0.2,2.8-0.5,3.6-0.8v-2.6C81.3,70.2,79.9,69.8,78.3,69.2"></path> <path d="M25.1,73v-3.1l0,1.4l0,0v-5.8l0,0l0-7.2c0-12.5-12.6-23.4-15.5-26.1v36.2l0,4.7H25.1z"></path> </g> </svg> 