<svg xmlns="http://www.w3.org/2000/svg" xmlns:xlink="http://www.w3.org/1999/xlink" id="Layer_2" width="173.49" height="173.5" viewBox="0 0 173.49 173.5"><defs><style>.cls-1{fill:url(#linear-gradient-61);}.cls-2{fill:url(#linear-gradient-15);}.cls-3{fill:url(#linear-gradient-13);}.cls-4{fill:url(#linear-gradient-107);}.cls-5{fill:url(#linear-gradient-28);}.cls-6{fill:url(#linear-gradient-65);}.cls-7{fill:url(#linear-gradient-69);}.cls-8{fill:url(#linear-gradient-53);}.cls-9{fill:url(#linear-gradient-42);}.cls-10{fill:url(#linear-gradient-46);}.cls-11{fill:url(#linear-gradient-70);}.cls-12{fill:url(#linear-gradient-60);}.cls-13{fill:url(#linear-gradient-93);}.cls-14{fill:url(#linear-gradient-95);}.cls-15{fill:url(#linear-gradient-2);}.cls-16,.cls-17{fill:#333;}.cls-18{fill:url(#linear-gradient-100);}.cls-19{fill:url(#linear-gradient-87);}.cls-20{fill:url(#linear-gradient-64);}.cls-21{fill:url(#linear-gradient-56);}.cls-22{fill:url(#linear-gradient-43);}.cls-23{fill:url(#linear-gradient-25);}.cls-24{fill:url(#linear-gradient-82);}.cls-25{fill:url(#linear-gradient-10);}.cls-26{fill:url(#linear-gradient-12);}.cls-27{fill:url(#linear-gradient-40);}.cls-28{fill:url(#linear-gradient-27);}.cls-29{fill:url(#linear-gradient-68);}.cls-30{fill:url(#linear-gradient-37);}.cls-31{fill:url(#linear-gradient-75);}.cls-32{fill:url(#linear-gradient-55);}.cls-33{fill:url(#linear-gradient-39);}.cls-34{fill:url(#linear-gradient-89);}.cls-35{fill:url(#linear-gradient-52);}.cls-36{fill:url(#linear-gradient-58);}.cls-37{fill:url(#linear-gradient-47);}.cls-38{fill:url(#linear-gradient-26);}.cls-39{fill:url(#linear-gradient-74);}.cls-40{fill:url(#linear-gradient-97);}.cls-41{fill:url(#linear-gradient-72);}.cls-42{fill:url(#linear-gradient-4);}.cls-43{fill:url(#linear-gradient-35);}.cls-44{fill:url(#linear-gradient-30);}.cls-45{fill:url(#linear-gradient-76);}.cls-46{fill:url(#linear-gradient-109);}.cls-47{fill:url(#linear-gradient-73);}.cls-48{fill:url(#linear-gradient-71);}.cls-49{fill:url(#linear-gradient-44);}.cls-50{fill:url(#linear-gradient-96);}.cls-51{fill:url(#linear-gradient-49);}.cls-52{fill:url(#linear-gradient-3);}.cls-53{fill:url(#linear-gradient-34);}.cls-54{fill:url(#linear-gradient-5);}.cls-55{fill:url(#linear-gradient-38);}.cls-56{fill:url(#linear-gradient-91);}.cls-57{fill:url(#linear-gradient-22);}.cls-58{fill:url(#linear-gradient-24);}.cls-59{fill:url(#linear-gradient-94);}.cls-60{fill:url(#linear-gradient-54);}.cls-61{fill:url(#New_Gradient_Swatch_2-2);}.cls-62{fill:url(#linear-gradient-92);}.cls-63{fill:url(#linear-gradient-90);}.cls-64{fill:url(#linear-gradient-33);}.cls-65{fill:url(#linear-gradient-79);}.cls-66{fill:url(#linear-gradient-78);}.cls-67{fill:url(#linear-gradient-51);}.cls-68{fill:url(#linear-gradient-66);}.cls-69{fill:url(#linear-gradient-57);}.cls-70{fill:url(#linear-gradient-77);}.cls-71{fill:url(#linear-gradient-103);}.cls-72{fill:url(#New_Gradient_Swatch_2);}.cls-73{fill:url(#linear-gradient-88);}.cls-74{fill:url(#linear-gradient-14);}.cls-75{fill:url(#linear-gradient-62);}.cls-17,.cls-76{fill-rule:evenodd;}.cls-77{fill:url(#linear-gradient-29);}.cls-78{fill:url(#linear-gradient-20);}.cls-79{fill:url(#linear-gradient-106);}.cls-80{fill:url(#linear-gradient-67);}.cls-81{fill:url(#linear-gradient-17);}.cls-82{fill:url(#linear-gradient-50);}.cls-83{fill:url(#linear-gradient-7);}.cls-84{fill:url(#linear-gradient-9);}.cls-85{fill:url(#linear-gradient-104);}.cls-86{fill:url(#linear-gradient-59);}.cls-87{fill:url(#linear-gradient-11);}.cls-88{fill:url(#linear-gradient-108);}.cls-89{fill:url(#linear-gradient-19);}.cls-90{fill:url(#linear-gradient-101);}.cls-91{fill:url(#linear-gradient-80);}.cls-92{fill:url(#linear-gradient-6);}.cls-93{fill:url(#linear-gradient-83);}.cls-94{fill:url(#linear-gradient-105);}.cls-95{fill:url(#linear-gradient-36);}.cls-96{fill:url(#linear-gradient-21);}.cls-97{fill:url(#linear-gradient-45);}.cls-98{fill:url(#linear-gradient-85);}.cls-99{fill:url(#linear-gradient-98);}.cls-100{fill:url(#linear-gradient-81);}.cls-76{fill:url(#linear-gradient-8);}.cls-101{fill:url(#linear-gradient-84);}.cls-102{fill:url(#linear-gradient-48);}.cls-103{fill:url(#linear-gradient-102);}.cls-104{fill:url(#linear-gradient-32);}.cls-105{fill:url(#linear-gradient-86);}.cls-106{fill:url(#linear-gradient-41);}.cls-107{fill:url(#linear-gradient-16);}.cls-108{fill:url(#linear-gradient);}.cls-109{fill:url(#linear-gradient-23);}.cls-110{fill:url(#linear-gradient-31);}.cls-111{fill:url(#linear-gradient-63);}.cls-112{fill:#414042;}.cls-113{fill:url(#linear-gradient-99);}.cls-114{fill:url(#linear-gradient-18);}</style><linearGradient id="linear-gradient" x1="25.44" y1="25.44" x2="147.59" y2="147.6" gradientUnits="userSpaceOnUse"><stop offset="0" stop-color="#c7c6c5"></stop><stop offset=".15" stop-color="#f6f6f6"></stop><stop offset=".28" stop-color="#b5b5b5"></stop><stop offset=".42" stop-color="#f6f6f6"></stop><stop offset=".56" stop-color="#9c9c9b"></stop><stop offset=".66" stop-color="#ededee"></stop><stop offset=".77" stop-color="#b5b5b5"></stop><stop offset=".88" stop-color="#ededee"></stop><stop offset="1" stop-color="#b5b5b5"></stop></linearGradient><linearGradient id="linear-gradient-2" x1="86.75" y1=".98" x2="86.75" y2="172.08" gradientUnits="userSpaceOnUse"><stop offset="0" stop-color="#ddecf1"></stop><stop offset=".27" stop-color="#d5dddf"></stop><stop offset=".5" stop-color="#cececd"></stop><stop offset="1" stop-color="#ddecf1"></stop></linearGradient><linearGradient id="linear-gradient-3" x1="86.75" y1="-7.85" x2="86.75" y2="178.16" gradientUnits="userSpaceOnUse"><stop offset="0" stop-color="#f3f3f3"></stop><stop offset=".21" stop-color="#e6e6e5"></stop><stop offset=".75" stop-color="#b4b4b4"></stop><stop offset="1" stop-color="#989898"></stop></linearGradient><linearGradient id="linear-gradient-4" x1="86.75" y1="4.81" x2="86.75" y2="168.27" gradientUnits="userSpaceOnUse"><stop offset="0" stop-color="#fff"></stop><stop offset=".25" stop-color="#d6ebf2"></stop><stop offset=".5" stop-color="#f6f6f6"></stop><stop offset=".55" stop-color="#6d6e71"></stop><stop offset=".74" stop-color="#c8c8ca"></stop><stop offset=".81" stop-color="#ededee"></stop><stop offset="1" stop-color="#d6ebf2"></stop></linearGradient><linearGradient id="linear-gradient-5" x1="86.75" y1="163.17" x2="86.75" y2="8.16" xlink:href="#linear-gradient-3"></linearGradient><linearGradient id="linear-gradient-6" x1="86.75" y1="8.68" x2="86.75" y2="167.31" gradientUnits="userSpaceOnUse"><stop offset="0" stop-color="#f6f6f6"></stop><stop offset=".25" stop-color="#b3b3b3"></stop><stop offset=".5" stop-color="#f6f6f6"></stop><stop offset=".52" stop-color="#585856"></stop><stop offset=".7" stop-color="#b1b1b1"></stop><stop offset=".81" stop-color="#ededee"></stop><stop offset="1" stop-color="#9c9c9b"></stop></linearGradient><linearGradient id="linear-gradient-7" x1="86.75" y1="8.32" x2="86.75" y2="165.19" gradientUnits="userSpaceOnUse"><stop offset="0" stop-color="#f3f3f3"></stop><stop offset=".18" stop-color="#e8eff2"></stop><stop offset=".32" stop-color="#ddecf1"></stop><stop offset=".63" stop-color="#f3f3f3"></stop><stop offset="1" stop-color="#d6ebf2"></stop></linearGradient><linearGradient id="linear-gradient-8" x1="86.77" y1="142.66" x2="86.77" y2="129.84" xlink:href="#linear-gradient-3"></linearGradient><linearGradient id="linear-gradient-9" x1="80.39" y1="13.69" x2="80.39" y2="158.6" gradientUnits="userSpaceOnUse"><stop offset="0" stop-color="#f6f6f6"></stop><stop offset=".25" stop-color="#b3b3b3"></stop><stop offset=".5" stop-color="#f6f6f6"></stop><stop offset=".52" stop-color="#6d6e71"></stop><stop offset=".73" stop-color="#c8c8ca"></stop><stop offset=".81" stop-color="#ededee"></stop><stop offset="1" stop-color="#9c9c9b"></stop></linearGradient><linearGradient id="linear-gradient-10" x1="79.68" y1="13.66" x2="79.68" y2="158.6" xlink:href="#linear-gradient-9"></linearGradient><linearGradient id="linear-gradient-11" x1="72.5" y1="13.71" x2="72.5" y2="158.6" xlink:href="#linear-gradient-9"></linearGradient><linearGradient id="linear-gradient-12" x1="71.23" y1="13.64" x2="71.23" y2="158.6" xlink:href="#linear-gradient-9"></linearGradient><linearGradient id="linear-gradient-13" x1="64.82" y1="13.71" x2="64.82" y2="158.6" xlink:href="#linear-gradient-9"></linearGradient><linearGradient id="linear-gradient-14" x1="63.01" y1="13.75" x2="63.01" y2="158.6" xlink:href="#linear-gradient-9"></linearGradient><linearGradient id="linear-gradient-15" x1="57.46" y1="13.71" x2="57.46" y2="158.6" xlink:href="#linear-gradient-9"></linearGradient><linearGradient id="linear-gradient-16" x1="55.14" y1="13.71" x2="55.14" y2="158.6" xlink:href="#linear-gradient-9"></linearGradient><linearGradient id="linear-gradient-17" x1="50.53" y1="13.68" x2="50.53" y2="158.6" xlink:href="#linear-gradient-9"></linearGradient><linearGradient id="linear-gradient-18" x1="47.74" y1="13.63" x2="47.74" y2="158.6" xlink:href="#linear-gradient-9"></linearGradient><linearGradient id="linear-gradient-19" x1="44.11" y1="13.66" x2="44.11" y2="158.6" xlink:href="#linear-gradient-9"></linearGradient><linearGradient id="linear-gradient-20" x1="40.92" y1="13.72" x2="40.92" y2="158.59" xlink:href="#linear-gradient-9"></linearGradient><linearGradient id="linear-gradient-21" x1="38.25" y1="13.68" x2="38.25" y2="158.6" xlink:href="#linear-gradient-9"></linearGradient><linearGradient id="linear-gradient-22" x1="34.76" y1="13.7" x2="34.76" y2="158.6" xlink:href="#linear-gradient-9"></linearGradient><linearGradient id="linear-gradient-23" x1="33.18" y1="13.7" x2="33.18" y2="158.6" xlink:href="#linear-gradient-9"></linearGradient><linearGradient id="linear-gradient-24" x1="29.36" y1="13.64" x2="29.36" y2="158.61" xlink:href="#linear-gradient-9"></linearGradient><linearGradient id="linear-gradient-25" x1="28.9" y1="13.7" x2="28.9" y2="158.6" xlink:href="#linear-gradient-9"></linearGradient><linearGradient id="linear-gradient-26" x1="24.8" y1="13.67" x2="24.8" y2="158.6" xlink:href="#linear-gradient-9"></linearGradient><linearGradient id="linear-gradient-27" x1="25.48" y1="13.69" x2="25.48" y2="158.6" xlink:href="#linear-gradient-9"></linearGradient><linearGradient id="linear-gradient-28" x1="21.14" y1="13.69" x2="21.14" y2="158.6" xlink:href="#linear-gradient-9"></linearGradient><linearGradient id="linear-gradient-29" x1="22.97" y1="13.69" x2="22.97" y2="158.6" xlink:href="#linear-gradient-9"></linearGradient><linearGradient id="linear-gradient-30" x1="18.44" y1="13.71" x2="18.44" y2="158.59" xlink:href="#linear-gradient-9"></linearGradient><linearGradient id="linear-gradient-31" x1="21.39" y1="13.7" x2="21.39" y2="158.59" xlink:href="#linear-gradient-9"></linearGradient><linearGradient id="linear-gradient-32" x1="16.69" y1="13.71" x2="16.69" y2="158.59" xlink:href="#linear-gradient-9"></linearGradient><linearGradient id="linear-gradient-33" x1="20.6" y1="13.7" x2="20.6" y2="158.59" xlink:href="#linear-gradient-9"></linearGradient><linearGradient id="linear-gradient-34" x1="15.91" y1="13.7" x2="15.91" y2="158.59" xlink:href="#linear-gradient-9"></linearGradient><linearGradient id="linear-gradient-35" x1="20.82" y1="13.67" x2="20.82" y2="158.62" xlink:href="#linear-gradient-9"></linearGradient><linearGradient id="linear-gradient-36" x1="16.11" y1="13.69" x2="16.11" y2="158.6" xlink:href="#linear-gradient-9"></linearGradient><linearGradient id="linear-gradient-37" x1="22.04" y1="13.7" x2="22.04" y2="158.58" xlink:href="#linear-gradient-9"></linearGradient><linearGradient id="linear-gradient-38" x1="17.3" y1="13.69" x2="17.3" y2="158.59" xlink:href="#linear-gradient-9"></linearGradient><linearGradient id="linear-gradient-39" x1="24.25" y1="13.68" x2="24.25" y2="158.61" xlink:href="#linear-gradient-9"></linearGradient><linearGradient id="linear-gradient-40" x1="19.71" y1="13.7" x2="19.71" y2="158.59" xlink:href="#linear-gradient-9"></linearGradient><linearGradient id="linear-gradient-41" x1="27.38" y1="13.68" x2="27.38" y2="158.62" xlink:href="#linear-gradient-9"></linearGradient><linearGradient id="linear-gradient-42" x1="23.09" y1="13.69" x2="23.09" y2="158.61" xlink:href="#linear-gradient-9"></linearGradient><linearGradient id="linear-gradient-43" x1="31.38" y1="13.7" x2="31.38" y2="158.57" xlink:href="#linear-gradient-9"></linearGradient><linearGradient id="linear-gradient-44" x1="27.4" y1="13.69" x2="27.4" y2="158.6" xlink:href="#linear-gradient-9"></linearGradient><linearGradient id="linear-gradient-45" x1="36.19" y1="13.68" x2="36.19" y2="158.64" xlink:href="#linear-gradient-9"></linearGradient><linearGradient id="linear-gradient-46" x1="32.56" y1="13.7" x2="32.56" y2="158.57" xlink:href="#linear-gradient-9"></linearGradient><linearGradient id="linear-gradient-47" x1="41.73" y1="13.69" x2="41.73" y2="158.59" xlink:href="#linear-gradient-9"></linearGradient><linearGradient id="linear-gradient-48" x1="38.64" y1="13.69" x2="38.64" y2="158.62" xlink:href="#linear-gradient-9"></linearGradient><linearGradient id="linear-gradient-49" x1="47.93" y1="13.7" x2="47.93" y2="158.55" xlink:href="#linear-gradient-9"></linearGradient><linearGradient id="linear-gradient-50" x1="45.39" y1="13.7" x2="45.39" y2="158.58" xlink:href="#linear-gradient-9"></linearGradient><linearGradient id="linear-gradient-51" x1="54.68" y1="13.7" x2="54.68" y2="158.56" xlink:href="#linear-gradient-9"></linearGradient><linearGradient id="linear-gradient-52" x1="52.63" y1="13.69" x2="52.63" y2="158.6" xlink:href="#linear-gradient-9"></linearGradient><linearGradient id="linear-gradient-53" x1="61.91" y1="13.7" x2="61.91" y2="158.53" xlink:href="#linear-gradient-9"></linearGradient><linearGradient id="linear-gradient-54" x1="60.38" y1="13.69" x2="60.38" y2="158.6" xlink:href="#linear-gradient-9"></linearGradient><linearGradient id="linear-gradient-55" x1="69.49" y1="13.69" x2="69.49" y2="158.62" xlink:href="#linear-gradient-9"></linearGradient><linearGradient id="linear-gradient-56" x1="68.51" y1="13.69" x2="68.51" y2="158.63" xlink:href="#linear-gradient-9"></linearGradient><linearGradient id="linear-gradient-57" x1="77.33" y1="13.69" x2="77.33" y2="158.6" xlink:href="#linear-gradient-9"></linearGradient><linearGradient id="linear-gradient-58" x1="76.92" y1="13.69" x2="76.92" y2="158.57" xlink:href="#linear-gradient-9"></linearGradient><linearGradient id="linear-gradient-59" x1="93.1" x2="93.1" xlink:href="#linear-gradient-9"></linearGradient><linearGradient id="linear-gradient-60" x1="93.81" y1="13.66" x2="93.81" y2="158.6" xlink:href="#linear-gradient-9"></linearGradient><linearGradient id="linear-gradient-61" x1="101" y1="13.71" x2="101" y2="158.6" xlink:href="#linear-gradient-9"></linearGradient><linearGradient id="linear-gradient-62" x1="102.26" y1="13.64" x2="102.26" y2="158.6" xlink:href="#linear-gradient-9"></linearGradient><linearGradient id="linear-gradient-63" x1="108.68" y1="13.71" x2="108.68" y2="158.6" xlink:href="#linear-gradient-9"></linearGradient><linearGradient id="linear-gradient-64" x1="110.48" y1="13.75" x2="110.48" y2="158.6" xlink:href="#linear-gradient-9"></linearGradient><linearGradient id="linear-gradient-65" x1="116.03" y1="13.71" x2="116.03" y2="158.6" xlink:href="#linear-gradient-9"></linearGradient><linearGradient id="linear-gradient-66" x1="118.35" y1="13.71" x2="118.35" y2="158.6" xlink:href="#linear-gradient-9"></linearGradient><linearGradient id="linear-gradient-67" x1="122.96" y1="13.68" x2="122.96" y2="158.6" xlink:href="#linear-gradient-9"></linearGradient><linearGradient id="linear-gradient-68" x1="125.75" y1="13.63" x2="125.75" y2="158.6" xlink:href="#linear-gradient-9"></linearGradient><linearGradient id="linear-gradient-69" x1="129.38" y1="13.66" x2="129.38" y2="158.6" xlink:href="#linear-gradient-9"></linearGradient><linearGradient id="linear-gradient-70" x1="132.58" y1="13.72" x2="132.58" y2="158.59" xlink:href="#linear-gradient-9"></linearGradient><linearGradient id="linear-gradient-71" x1="135.25" y1="13.68" x2="135.25" y2="158.6" xlink:href="#linear-gradient-9"></linearGradient><linearGradient id="linear-gradient-72" x1="138.73" y1="13.7" x2="138.73" y2="158.6" xlink:href="#linear-gradient-9"></linearGradient><linearGradient id="linear-gradient-73" x1="140.32" y1="13.7" x2="140.32" y2="158.6" xlink:href="#linear-gradient-9"></linearGradient><linearGradient id="linear-gradient-74" x1="144.13" y1="13.64" x2="144.13" y2="158.61" xlink:href="#linear-gradient-9"></linearGradient><linearGradient id="linear-gradient-75" x1="144.59" y1="13.7" x2="144.59" y2="158.6" xlink:href="#linear-gradient-9"></linearGradient><linearGradient id="linear-gradient-76" x1="148.69" y1="13.67" x2="148.69" y2="158.6" xlink:href="#linear-gradient-9"></linearGradient><linearGradient id="linear-gradient-77" x1="148.02" y1="13.69" x2="148.02" y2="158.6" xlink:href="#linear-gradient-9"></linearGradient><linearGradient id="linear-gradient-78" x1="152.35" y1="13.69" x2="152.35" y2="158.6" xlink:href="#linear-gradient-9"></linearGradient><linearGradient id="linear-gradient-79" x1="150.52" y1="13.69" x2="150.52" y2="158.6" xlink:href="#linear-gradient-9"></linearGradient><linearGradient id="linear-gradient-80" x1="155.05" y1="13.71" x2="155.05" y2="158.59" xlink:href="#linear-gradient-9"></linearGradient><linearGradient id="linear-gradient-81" x1="152.1" y1="13.7" x2="152.1" y2="158.59" xlink:href="#linear-gradient-9"></linearGradient><linearGradient id="linear-gradient-82" x1="156.8" y1="13.71" x2="156.8" y2="158.59" xlink:href="#linear-gradient-9"></linearGradient><linearGradient id="linear-gradient-83" x1="152.89" y1="13.7" x2="152.89" y2="158.59" xlink:href="#linear-gradient-9"></linearGradient><linearGradient id="linear-gradient-84" x1="157.58" y1="13.7" x2="157.58" y2="158.59" xlink:href="#linear-gradient-9"></linearGradient><linearGradient id="linear-gradient-85" x1="152.67" y1="13.67" x2="152.67" y2="158.62" xlink:href="#linear-gradient-9"></linearGradient><linearGradient id="linear-gradient-86" x1="157.38" y1="13.69" x2="157.38" y2="158.6" xlink:href="#linear-gradient-9"></linearGradient><linearGradient id="linear-gradient-87" x1="151.46" y1="13.7" x2="151.46" y2="158.58" xlink:href="#linear-gradient-9"></linearGradient><linearGradient id="linear-gradient-88" x1="156.19" y1="13.69" x2="156.19" y2="158.59" xlink:href="#linear-gradient-9"></linearGradient><linearGradient id="linear-gradient-89" x1="149.25" y1="13.68" x2="149.25" y2="158.61" xlink:href="#linear-gradient-9"></linearGradient><linearGradient id="linear-gradient-90" x1="153.78" y1="13.7" x2="153.78" y2="158.59" xlink:href="#linear-gradient-9"></linearGradient><linearGradient id="linear-gradient-91" x1="146.12" y1="13.68" x2="146.12" y2="158.62" xlink:href="#linear-gradient-9"></linearGradient><linearGradient id="linear-gradient-92" x1="150.4" y1="13.69" x2="150.4" y2="158.61" xlink:href="#linear-gradient-9"></linearGradient><linearGradient id="linear-gradient-93" x1="142.12" y1="13.7" x2="142.12" y2="158.57" xlink:href="#linear-gradient-9"></linearGradient><linearGradient id="linear-gradient-94" x1="146.1" y1="13.69" x2="146.1" y2="158.6" xlink:href="#linear-gradient-9"></linearGradient><linearGradient id="linear-gradient-95" x1="137.31" y1="13.68" x2="137.31" y2="158.64" xlink:href="#linear-gradient-9"></linearGradient><linearGradient id="linear-gradient-96" x1="140.93" y1="13.7" x2="140.93" y2="158.57" xlink:href="#linear-gradient-9"></linearGradient><linearGradient id="linear-gradient-97" x1="131.76" y1="13.69" x2="131.76" y2="158.59" xlink:href="#linear-gradient-9"></linearGradient><linearGradient id="linear-gradient-98" x1="134.85" y1="13.69" x2="134.85" y2="158.62" xlink:href="#linear-gradient-9"></linearGradient><linearGradient id="linear-gradient-99" x1="125.57" y1="13.7" x2="125.57" y2="158.55" xlink:href="#linear-gradient-9"></linearGradient><linearGradient id="linear-gradient-100" x1="128.11" y1="13.7" x2="128.11" y2="158.58" xlink:href="#linear-gradient-9"></linearGradient><linearGradient id="linear-gradient-101" x1="118.81" y1="13.7" x2="118.81" y2="158.56" xlink:href="#linear-gradient-9"></linearGradient><linearGradient id="linear-gradient-102" x1="120.86" y1="13.69" x2="120.86" y2="158.6" xlink:href="#linear-gradient-9"></linearGradient><linearGradient id="linear-gradient-103" x1="111.58" y1="13.7" x2="111.58" y2="158.53" xlink:href="#linear-gradient-9"></linearGradient><linearGradient id="linear-gradient-104" x1="113.11" y1="13.69" x2="113.11" y2="158.6" xlink:href="#linear-gradient-9"></linearGradient><linearGradient id="linear-gradient-105" x1="104" y1="13.69" x2="104" y2="158.62" xlink:href="#linear-gradient-9"></linearGradient><linearGradient id="linear-gradient-106" x1="104.98" y1="13.69" x2="104.98" y2="158.63" xlink:href="#linear-gradient-9"></linearGradient><linearGradient id="linear-gradient-107" x1="96.16" y1="13.69" x2="96.16" y2="158.6" xlink:href="#linear-gradient-9"></linearGradient><linearGradient id="linear-gradient-108" x1="96.57" y1="13.69" x2="96.57" y2="158.57" xlink:href="#linear-gradient-9"></linearGradient><linearGradient id="linear-gradient-109" x1="86.75" y1="13.69" x2="86.75" y2="158.61" xlink:href="#linear-gradient-9"></linearGradient><linearGradient id="New_Gradient_Swatch_2" x1="86.91" y1="34.72" x2="86.91" y2="60.75" gradientUnits="userSpaceOnUse"><stop offset="0" stop-color="#f6f6f6"></stop><stop offset=".25" stop-color="#b3b3b3"></stop><stop offset=".5" stop-color="#f6f6f6"></stop><stop offset=".59" stop-color="#585856"></stop><stop offset=".72" stop-color="#b1b1b1"></stop><stop offset=".81" stop-color="#ededee"></stop><stop offset="1" stop-color="#9c9c9b"></stop></linearGradient><linearGradient id="New_Gradient_Swatch_2-2" x1="87.82" y1="72.59" x2="87.82" y2="101.33" xlink:href="#New_Gradient_Swatch_2"></linearGradient></defs><g id="Layer_1-2"><path class="cls-108" d="M86.75,173.5C38.92,173.5,0,134.59,0,86.75S38.92,0,86.75,0s86.74,38.92,86.74,86.75-38.91,86.75-86.74,86.75Z"></path><path class="cls-15" d="M86.75,173.07C39.16,173.07.44,134.34.44,86.75S39.16.44,86.75.44s86.31,38.72,86.31,86.31-38.72,86.32-86.31,86.32Z"></path><path class="cls-52" d="M86.75,169.98c-45.89,0-83.23-37.34-83.23-83.23S40.86,3.52,86.75,3.52s83.22,37.34,83.22,83.23-37.33,83.23-83.22,83.23Z"></path><path class="cls-42" d="M86.75,169.21c-45.46,0-82.45-36.99-82.45-82.46S41.29,4.3,86.75,4.3s82.45,36.99,82.45,82.46-36.99,82.46-82.45,82.46Z"></path><path class="cls-54" d="M86.75,166.83c-44.15,0-80.08-35.92-80.08-80.08S42.6,6.67,86.75,6.67s80.07,35.92,80.07,80.08-35.92,80.08-80.07,80.08Z"></path><path class="cls-92" d="M86.75,166.07c-43.73,0-79.31-35.59-79.31-79.32S43.02,7.44,86.75,7.44s79.31,35.59,79.31,79.32-35.58,79.32-79.31,79.32Z"></path><path class="cls-83" d="M86.75,165.19c-43.25,0-78.43-35.18-78.43-78.43S43.5,8.32,86.75,8.32s78.43,35.19,78.43,78.44-35.18,78.43-78.43,78.43Z"></path><path class="cls-76" d="M85.28,138.11h-4.79s3.88-2.8,3.88-2.8l-1.49-4.56,3.87,2.83,3.87-2.82-1.5,4.55,3.88,2.81h-4.79s-1.47,4.55-1.47,4.55l-1.47-4.55ZM102.49,135.06h-3.4s2.76-1.99,2.76-1.99l-1.06-3.23,2.75,2,2.75-2-1.06,3.23,2.75,1.99h-3.4s-1.05,3.23-1.05,3.23l-1.04-3.23ZM68.97,135.06h-3.4s2.75-1.99,2.75-1.99l-1.06-3.23,2.75,2,2.75-2-1.06,3.23,2.75,1.99h-3.4s-1.04,3.23-1.04,3.23l-1.05-3.23Z"></path><path class="cls-17" d="M81.19,137.88l3.44-2.49-1.32-4.04,3.43,2.51,3.43-2.5-1.33,4.04,3.44,2.49h-4.24s-1.31,4.03-1.31,4.03l-1.31-4.04h-4.25ZM102.65,134.83l.87,2.71.88-2.71h2.86s-2.31-1.67-2.31-1.67l.89-2.71-2.31,1.68-2.31-1.68.89,2.71-2.32,1.67h2.86ZM73.75,134.84l-2.31-1.67.89-2.71-2.31,1.68-2.31-1.68.89,2.71-2.31,1.67h2.86s.88,2.71.88,2.71l.87-2.71h2.86Z"></path><path class="cls-84" d="M79.65,154.53c.82.51,1.93.37,2.37.39.45.02.98-.13,1.94.84.26-.08.2-.47.2-.47,0,0-.38-.05-.73-.23-.14-.07-.25-.17-.32-.25-.07-.08-.19-.45-.23-.6-.39-1.23-1.1-2.29-2.14-2.96-1.04-.67-2.39-.96-4.14-.7,1.81,1.49,1.34,2.89,3.05,3.99Z"></path><path class="cls-25" d="M79.48,156.23c.93-.33,2,0,2.45.04.45.04.99.27,2.04-.61.25.1.17.49.17.49,0,0-.4.02-.76.16-.15.06-.27.14-.36.21-.08.07-.24.42-.31.56-.54,1.19-1.48,2.14-2.76,2.6-1.28.45-2.92.4-4.74-.43,2.44-.84,2.3-2.35,4.27-3.02Z"></path><path class="cls-87" d="M71.57,153.19c.75.61,1.87.59,2.3.67.44.08.98-.01,1.83,1.06.27-.05.26-.45.26-.45,0,0-.38-.09-.7-.31-.13-.09-.23-.2-.29-.29-.06-.09-.13-.47-.16-.62-.23-1.28-.82-2.41-1.76-3.2-.95-.79-2.25-1.24-4.02-1.19,1.62,1.69.98,3.04,2.55,4.33Z"></path><path class="cls-26" d="M71.19,154.84c.95-.21,1.99.24,2.43.33.44.09.95.38,2.1-.37.24.13.11.51.11.51,0,0-.4-.02-.78.07-.16.04-.29.11-.38.17-.09.06-.29.4-.37.53-.68,1.11-1.72,1.95-3.05,2.24-1.33.29-2.95.05-4.66-1,2.52-.54,2.56-2.05,4.6-2.48Z"></path><path class="cls-3" d="M63.71,150.87c.67.7,1.78.82,2.21.94.43.13.98.11,1.69,1.28.27-.01.31-.41.31-.41,0,0-.36-.14-.66-.4-.12-.11-.2-.22-.25-.32-.05-.09-.07-.48-.08-.64-.08-1.3-.52-2.5-1.36-3.39-.84-.9-2.08-1.5-3.84-1.67,1.41,1.88.6,3.13,2,4.61Z"></path><path class="cls-74" d="M63.13,152.47c.98-.09,1.94.48,2.38.62.43.14.89.5,2.13-.11.22.16.05.51.04.51,0,0-.39-.07-.78-.02-.16.02-.3.07-.39.12-.1.05-.34.36-.44.48-.81,1.02-1.95,1.72-3.31,1.86-1.35.13-2.93-.31-4.5-1.56,2.57-.23,2.79-1.73,4.86-1.91Z"></path><path class="cls-2" d="M56.2,147.61c.58.77,1.67,1.03,2.08,1.21.41.18.96.23,1.52,1.47.27.02.36-.37.36-.37,0,0-.35-.19-.61-.47-.1-.12-.17-.25-.21-.35-.04-.1-.01-.49,0-.64.08-1.3-.22-2.54-.94-3.53-.73-1-1.88-1.74-3.61-2.12,1.17,2.03.22,3.18,1.42,4.81Z"></path><path class="cls-107" d="M55.43,149.13c.98.02,1.87.71,2.28.91.41.2.83.6,2.13.15.2.18-.02.52-.02.52,0,0-.38-.13-.78-.13-.16,0-.3.04-.41.07-.1.04-.38.31-.49.42-.93.92-2.14,1.47-3.51,1.44-1.36-.03-2.87-.66-4.27-2.09,2.57.08,2.98-1.37,5.06-1.3Z"></path><path class="cls-81" d="M49.13,143.47c.49.84,1.53,1.22,1.92,1.45.39.23.92.34,1.33,1.65.26.05.4-.33.4-.32,0,0-.32-.23-.55-.54-.09-.13-.14-.27-.17-.37-.03-.1.04-.48.07-.63.24-1.28.09-2.55-.51-3.62-.6-1.08-1.66-1.96-3.33-2.55.92,2.16-.17,3.19.84,4.95Z"></path><path class="cls-114" d="M48.18,144.89c.97.14,1.77.93,2.15,1.18.38.24.75.7,2.09.41.18.21-.08.51-.08.51,0,0-.36-.17-.76-.22-.16-.02-.31,0-.41.03-.11.02-.41.26-.54.36-1.04.8-2.3,1.2-3.66,1-1.35-.2-2.77-1.01-3.99-2.59,2.55.39,3.12-1.01,5.18-.68Z"></path><path class="cls-89" d="M42.61,138.5c.38.89,1.38,1.4,1.73,1.67.36.28.88.45,1.12,1.79.26.09.44-.28.44-.28,0,0-.29-.26-.48-.6-.08-.14-.11-.28-.12-.39-.02-.11.1-.47.15-.62.39-1.24.4-2.52-.07-3.66-.47-1.14-1.41-2.14-3-2.93.65,2.25-.55,3.15.23,5.02Z"></path><path class="cls-78" d="M41.5,139.8c.95.26,1.65,1.14,2,1.43.35.29.66.79,2.03.66.15.23-.14.5-.14.5,0,0-.33-.21-.72-.3-.16-.04-.3-.04-.41-.02-.11,0-.44.21-.58.29-1.12.67-2.43.92-3.75.56-1.31-.36-2.63-1.33-3.65-3.05,2.48.69,3.22-.63,5.23-.06Z"></path><path class="cls-96" d="M36.73,132.79c.27.93,1.2,1.56,1.52,1.86.32.32.82.56.9,1.92.25.11.47-.22.47-.22,0,0-.26-.3-.4-.66-.06-.15-.07-.3-.08-.4,0-.11.16-.46.23-.6.54-1.18.7-2.45.37-3.64-.33-1.19-1.15-2.3-2.63-3.27.38,2.31-.92,3.06-.37,5.01Z"></path><path class="cls-57" d="M35.47,133.95c.91.37,1.5,1.33,1.81,1.66.31.32.56.86,1.93.9.12.24-.2.48-.2.48,0,0-.31-.25-.68-.39-.15-.05-.3-.07-.41-.07s-.47.16-.61.22c-1.2.53-2.53.62-3.79.1-1.26-.51-2.45-1.64-3.26-3.46,2.38.99,3.27-.23,5.19.57Z"></path><path class="cls-109" d="M31.58,126.42c.16.95,1,1.69,1.28,2.03.28.35.74.65.66,2.01.23.14.49-.16.49-.16,0,0-.22-.32-.32-.7-.04-.15-.04-.3-.03-.41.01-.11.22-.44.3-.57.67-1.11.99-2.35.8-3.56-.19-1.22-.86-2.42-2.22-3.56.1,2.34-1.28,2.93-.96,4.93Z"></path><path class="cls-58" d="M30.19,127.41c.85.48,1.32,1.5,1.6,1.86.27.36.46.92,1.81,1.12.09.25-.26.45-.26.45,0,0-.28-.28-.63-.47-.14-.07-.29-.11-.39-.12-.11-.01-.48.1-.63.15-1.25.38-2.58.31-3.77-.35-1.19-.66-2.24-1.92-2.82-3.83,2.24,1.27,3.28.16,5.09,1.19Z"></path><path class="cls-23" d="M27.24,119.47c.04.97.79,1.79,1.02,2.17.24.38.66.73.42,2.07.21.17.51-.1.51-.1,0,0-.18-.35-.23-.74-.02-.16,0-.3.02-.41.03-.11.26-.41.36-.53.8-1.02,1.26-2.21,1.22-3.45-.03-1.23-.56-2.51-1.77-3.8-.19,2.33-1.63,2.75-1.55,4.77Z"></path><path class="cls-38" d="M25.74,120.29c.79.58,1.14,1.65,1.36,2.04.23.39.34.97,1.67,1.33.06.26-.31.42-.31.42,0,0-.24-.31-.57-.54-.13-.09-.27-.14-.38-.17-.11-.02-.49.05-.64.07-1.28.23-2.6,0-3.7-.8-1.1-.8-1.99-2.18-2.34-4.14,2.08,1.53,3.24.56,4.91,1.79Z"></path><path class="cls-28" d="M23.76,112.06c-.08.96.57,1.87.76,2.28.19.41.57.8.16,2.11.19.2.52-.04.52-.04,0,0-.13-.37-.14-.76,0-.16.04-.3.07-.4.04-.1.31-.37.42-.49.92-.92,1.52-2.05,1.64-3.27.11-1.23-.26-2.55-1.3-3.98-.47,2.3-1.95,2.53-2.12,4.55Z"></path><path class="cls-5" d="M22.17,112.69c.72.67.93,1.77,1.11,2.19.18.42.23,1,1.49,1.52.03.27-.35.38-.35.38,0,0-.2-.34-.5-.6-.12-.11-.26-.18-.36-.21-.1-.04-.49-.01-.65,0-1.3.07-2.59-.31-3.58-1.25-1-.93-1.71-2.4-1.82-4.39,1.88,1.77,3.14.95,4.66,2.38Z"></path><path class="cls-77" d="M21.21,104.27c-.19.95.34,1.93.47,2.35.14.43.47.87-.1,2.11.16.22.52.03.52.03,0,0-.09-.38-.05-.77.01-.15.07-.29.12-.39.05-.1.36-.33.48-.43,1.02-.8,1.76-1.84,2.02-3.05.26-1.21.05-2.57-.81-4.11-.74,2.22-2.24,2.28-2.66,4.26Z"></path><path class="cls-44" d="M19.56,104.7c.63.75.7,1.87.83,2.31.12.43.1,1.02,1.3,1.69,0,.27-.4.33-.4.33,0,0-.16-.36-.42-.66-.11-.12-.23-.2-.33-.25-.09-.05-.48-.08-.64-.09-1.3-.08-2.52-.63-3.4-1.67-.88-1.04-1.41-2.59-1.27-4.58,1.65,1.98,3.01,1.32,4.33,2.93Z"></path><path class="cls-110" d="M19.62,96.24c-.3.91.1,1.96.19,2.39.08.44.36.92-.35,2.09.14.23.51.09.51.09,0,0-.05-.39.04-.77.03-.15.11-.29.17-.37.06-.09.4-.29.53-.37,1.11-.67,1.97-1.62,2.37-2.78.41-1.16.37-2.54-.3-4.18-1.01,2.12-2.5,1.99-3.15,3.91Z"></path><path class="cls-104" d="M17.93,96.46c.53.82.47,1.94.55,2.39.07.44-.02,1.02,1.08,1.83-.04.27-.44.28-.44.28,0,0-.11-.38-.34-.71-.09-.13-.2-.23-.29-.29-.09-.06-.47-.13-.63-.16-1.28-.24-2.43-.93-3.17-2.07-.74-1.14-1.09-2.74-.71-4.7,1.39,2.17,2.83,1.67,3.95,3.43Z"></path><path class="cls-64" d="M19.01,88.06c-.42.88-.13,1.96-.11,2.4.03.45.25.95-.6,2.03.11.25.5.15.5.15,0,0,0-.39.14-.76.05-.14.14-.27.21-.35.07-.08.42-.24.56-.3,1.19-.53,2.15-1.37,2.7-2.48.54-1.11.67-2.48.2-4.19-1.25,1.98-2.72,1.67-3.6,3.5Z"></path><path class="cls-53" d="M17.31,88.09c.43.88.24,1.98.25,2.44.02.45-.14,1.02.85,1.95-.07.26-.47.23-.47.23,0,0-.07-.39-.25-.74-.07-.14-.17-.25-.26-.33-.08-.07-.45-.19-.6-.24-1.24-.4-2.3-1.21-2.9-2.44-.6-1.22-.74-2.85-.14-4.75,1.13,2.32,2.6,2,3.51,3.87Z"></path><path class="cls-43" d="M19.39,79.88c-.51.82-.37,1.93-.39,2.37-.03.45.13.98-.84,1.94.08.26.47.21.47.21,0,0,.05-.39.23-.74.07-.14.17-.25.25-.32.08-.07.45-.19.6-.23,1.24-.39,2.3-1.11,2.97-2.14.67-1.04.95-2.39.7-4.14-1.49,1.81-2.9,1.34-3.99,3.05Z"></path><path class="cls-95" d="M17.69,79.7c.33.93,0,2-.03,2.46-.04.45-.27.99.61,2.04-.1.25-.49.17-.49.17,0,0-.02-.39-.16-.77-.06-.15-.14-.27-.22-.35-.07-.08-.43-.24-.57-.31-1.19-.54-2.14-1.48-2.59-2.76-.45-1.28-.41-2.92.43-4.74.84,2.44,2.35,2.3,3.02,4.27Z"></path><path class="cls-30" d="M20.74,71.79c-.61.75-.59,1.87-.67,2.3-.08.44.01.98-1.06,1.83.05.27.45.26.45.26,0,0,.09-.38.31-.7.09-.13.2-.23.29-.29.09-.06.47-.13.62-.16,1.28-.23,2.41-.82,3.2-1.77.79-.95,1.24-2.25,1.19-4.02-1.69,1.62-3.04.98-4.33,2.54Z"></path><path class="cls-55" d="M19.08,71.41c.21.95-.24,1.98-.34,2.43-.09.44-.38.95.37,2.1-.13.24-.51.11-.51.11,0,0,.02-.4-.07-.78-.04-.15-.11-.28-.17-.38-.06-.09-.39-.29-.53-.37-1.11-.68-1.95-1.72-2.24-3.06-.3-1.33-.05-2.95.99-4.65.54,2.52,2.05,2.56,2.49,4.6Z"></path><path class="cls-33" d="M23.06,63.94c-.7.67-.82,1.78-.95,2.21-.13.43-.11.98-1.28,1.68.01.27.41.31.41.32,0,0,.14-.37.4-.67.1-.12.22-.2.32-.25.1-.05.48-.07.64-.08,1.3-.08,2.49-.52,3.39-1.36.9-.85,1.5-2.09,1.67-3.85-1.87,1.41-3.13.6-4.61,2Z"></path><path class="cls-27" d="M21.45,63.35c.09.98-.48,1.94-.63,2.37-.14.43-.5.9.11,2.13-.16.22-.52.05-.52.05,0,0,.07-.39.03-.78-.02-.16-.07-.3-.12-.4-.05-.1-.36-.34-.48-.43-1.02-.81-1.72-1.95-1.86-3.31-.13-1.35.31-2.93,1.56-4.5.23,2.57,1.73,2.79,1.91,4.87Z"></path><path class="cls-106" d="M26.31,56.41c-.77.59-1.03,1.67-1.2,2.08-.19.41-.23.96-1.48,1.52-.02.27.37.37.37.37,0,0,.19-.35.47-.61.12-.11.25-.17.35-.21.1-.04.49-.01.64,0,1.3.08,2.54-.21,3.54-.94.99-.73,1.74-1.89,2.12-3.62-2.03,1.17-3.18.22-4.82,1.43Z"></path><path class="cls-9" d="M24.79,55.65c-.02.98-.71,1.87-.91,2.28-.19.41-.6.83-.15,2.13-.19.2-.52-.02-.52-.02,0,0,.12-.38.12-.77,0-.16-.04-.3-.08-.41-.04-.11-.31-.38-.42-.49-.92-.93-1.47-2.14-1.44-3.51.03-1.36.67-2.87,2.09-4.27-.08,2.58,1.37,2.98,1.3,5.06Z"></path><path class="cls-22" d="M30.45,49.35c-.83.49-1.23,1.53-1.45,1.91-.23.39-.34.93-1.65,1.33-.05.27.32.4.32.4,0,0,.23-.32.54-.55.13-.09.27-.14.37-.17.11-.03.49.04.64.07,1.28.23,2.55.09,3.62-.51,1.08-.6,1.96-1.66,2.55-3.33-2.16.92-3.18-.17-4.95.84Z"></path><path class="cls-49" d="M29.04,48.4c-.15.97-.93,1.76-1.18,2.15-.24.38-.7.75-.41,2.09-.21.17-.52-.08-.52-.08,0,0,.17-.36.22-.75.02-.16,0-.3-.03-.41-.03-.11-.27-.42-.36-.54-.8-1.03-1.2-2.31-1-3.66.2-1.35,1.01-2.77,2.59-3.99-.39,2.55,1,3.12.68,5.18Z"></path><path class="cls-97" d="M35.42,42.83c-.89.38-1.4,1.38-1.67,1.73-.27.35-.45.88-1.79,1.12-.08.26.27.44.27.44,0,0,.27-.29.61-.48.14-.07.28-.11.39-.12.1-.01.47.1.63.15,1.24.39,2.51.4,3.65-.07,1.14-.47,2.15-1.42,2.93-3.01-2.25.65-3.14-.55-5.02.23Z"></path><path class="cls-10" d="M34.12,41.71c-.26.94-1.14,1.64-1.43,2-.28.35-.78.66-.66,2.03-.22.15-.5-.14-.5-.14,0,0,.21-.34.31-.72.03-.16.03-.3.02-.41-.02-.11-.21-.44-.29-.58-.67-1.12-.91-2.43-.56-3.75.36-1.31,1.33-2.63,3.05-3.65-.69,2.48.62,3.22.06,5.23Z"></path><path class="cls-37" d="M41.13,36.95c-.93.27-1.56,1.2-1.86,1.52-.32.32-.55.81-1.92.89-.12.25.22.47.22.47,0,0,.3-.26.66-.4.14-.06.29-.07.4-.07.11,0,.46.16.61.22,1.18.53,2.45.7,3.64.37,1.19-.33,2.3-1.15,3.27-2.63-2.31.37-3.05-.92-5.01-.37Z"></path><path class="cls-102" d="M39.98,35.69c-.37.9-1.33,1.49-1.66,1.81-.33.31-.86.56-.89,1.93-.24.12-.48-.2-.48-.2,0,0,.25-.31.39-.68.06-.15.07-.3.07-.41,0-.11-.16-.46-.22-.6-.53-1.2-.62-2.53-.1-3.79.51-1.26,1.64-2.45,3.46-3.26-.99,2.38.23,3.28-.57,5.2Z"></path><path class="cls-51" d="M47.5,31.8c-.95.16-1.69,1-2.03,1.28-.35.28-.64.74-2.01.66-.14.23.16.49.16.49,0,0,.33-.22.7-.32.15-.04.3-.04.41-.03.11.01.43.22.57.3,1.11.67,2.35.99,3.57.8,1.22-.19,2.42-.87,3.56-2.22-2.34.09-2.93-1.28-4.93-.97Z"></path><path class="cls-82" d="M46.51,30.41c-.48.85-1.5,1.33-1.86,1.6-.36.27-.92.46-1.12,1.81-.25.09-.45-.26-.45-.26,0,0,.28-.28.47-.63.07-.14.1-.28.12-.39.01-.11-.1-.48-.15-.63-.38-1.25-.31-2.58.35-3.77.66-1.19,1.92-2.23,3.83-2.82-1.26,2.24-.16,3.28-1.19,5.09Z"></path><path class="cls-67" d="M54.45,27.46c-.97.04-1.8.79-2.17,1.02-.38.23-.73.66-2.07.42-.17.21.1.51.1.51,0,0,.35-.18.73-.23.16-.02.3,0,.41.02.1.02.41.26.53.36,1.02.8,2.21,1.26,3.45,1.23,1.23-.04,2.51-.57,3.8-1.78-2.33-.19-2.75-1.63-4.77-1.55Z"></path><path class="cls-35" d="M53.63,25.96c-.58.79-1.64,1.14-2.04,1.36-.39.23-.97.34-1.33,1.67-.26.06-.42-.31-.42-.31,0,0,.32-.24.54-.57.09-.13.14-.27.17-.38.03-.11-.04-.49-.07-.65-.23-1.28,0-2.6.8-3.7.8-1.1,2.18-1.99,4.15-2.34-1.53,2.08-.56,3.24-1.8,4.91Z"></path><path class="cls-8" d="M61.86,23.98c-.96-.08-1.88.57-2.28.75-.41.19-.8.57-2.11.16-.19.19.04.52.04.52,0,0,.37-.14.76-.14.16,0,.3.04.4.07.1.03.37.31.48.42.92.92,2.04,1.52,3.27,1.63,1.23.11,2.56-.26,3.98-1.3-2.3-.47-2.53-1.95-4.55-2.12Z"></path><path class="cls-60" d="M61.23,22.39c-.67.71-1.77.93-2.19,1.11-.42.18-1,.22-1.52,1.49-.27.03-.37-.36-.37-.36,0,0,.34-.2.6-.5.11-.12.18-.25.21-.35.04-.1.02-.49,0-.65-.07-1.3.31-2.58,1.25-3.58.93-1,2.4-1.71,4.39-1.82-1.77,1.88-.94,3.15-2.38,4.66Z"></path><path class="cls-32" d="M69.65,21.42c-.95-.19-1.93.34-2.35.48-.43.14-.87.46-2.11-.09-.22.16-.02.52-.03.52,0,0,.38-.09.77-.05.16.02.3.07.39.12.09.05.33.35.43.48.8,1.02,1.85,1.76,3.05,2.02,1.21.26,2.57.05,4.11-.81-2.22-.75-2.28-2.24-4.26-2.66Z"></path><path class="cls-21" d="M69.22,19.77c-.75.63-1.87.71-2.31.83-.43.13-1.02.1-1.69,1.3-.27,0-.33-.4-.33-.4,0,0,.36-.16.66-.42.12-.1.2-.23.25-.32.05-.1.07-.48.09-.64.09-1.3.63-2.53,1.67-3.41,1.04-.87,2.59-1.4,4.59-1.27-1.99,1.65-1.32,3-2.93,4.33Z"></path><path class="cls-69" d="M77.69,19.84c-.92-.3-1.96.1-2.39.18-.44.08-.92.36-2.09-.35-.23.13-.09.51-.09.51,0,0,.39-.04.77.05.15.03.28.1.37.16.09.07.29.4.37.53.67,1.11,1.62,1.97,2.78,2.38,1.16.41,2.54.36,4.18-.3-2.11-1.01-1.99-2.5-3.91-3.16Z"></path><path class="cls-36" d="M77.46,18.15c-.82.54-1.94.47-2.39.55-.44.07-1.02-.02-1.83,1.08-.27-.03-.28-.43-.28-.44,0,0,.38-.11.7-.34.13-.09.23-.2.3-.29.06-.09.13-.47.16-.63.25-1.28.93-2.43,2.07-3.18,1.14-.74,2.74-1.08,4.7-.7-2.17,1.39-1.67,2.83-3.43,3.95Z"></path><path class="cls-86" d="M93.84,154.53c-.82.51-1.93.37-2.37.39-.45.02-.98-.13-1.94.84-.26-.08-.21-.47-.21-.47,0,0,.39-.05.74-.23.14-.07.25-.17.32-.25.07-.08.19-.45.23-.6.39-1.23,1.1-2.29,2.14-2.96,1.04-.67,2.39-.96,4.14-.7-1.81,1.49-1.34,2.89-3.05,3.99Z"></path><path class="cls-12" d="M94.02,156.23c-.92-.33-2,0-2.45.04-.45.04-.99.27-2.04-.61-.25.1-.17.49-.17.49,0,0,.4.02.76.16.15.06.27.14.35.21.08.07.25.42.31.56.54,1.19,1.48,2.14,2.76,2.6,1.28.45,2.92.4,4.74-.43-2.44-.84-2.29-2.35-4.26-3.02Z"></path><path class="cls-1" d="M101.92,153.19c-.75.61-1.87.59-2.31.67-.44.08-.98-.01-1.83,1.06-.27-.05-.26-.45-.26-.45,0,0,.38-.09.7-.31.13-.09.23-.2.29-.29.06-.09.13-.47.16-.62.23-1.28.82-2.41,1.77-3.2.95-.79,2.25-1.24,4.02-1.19-1.63,1.69-.98,3.04-2.55,4.33Z"></path><path class="cls-75" d="M102.3,154.84c-.96-.21-1.99.24-2.43.33-.44.09-.95.38-2.1-.37-.24.13-.11.51-.11.51,0,0,.4-.02.78.07.16.04.29.11.38.17.09.06.29.4.37.53.68,1.11,1.72,1.95,3.06,2.24,1.33.29,2.95.05,4.65-1-2.52-.54-2.56-2.05-4.6-2.48Z"></path><path class="cls-111" d="M109.78,150.87c-.67.7-1.78.82-2.21.94-.43.13-.98.11-1.69,1.28-.27-.01-.31-.41-.31-.41,0,0,.36-.14.66-.4.12-.11.2-.22.25-.32.05-.09.07-.48.08-.64.08-1.3.52-2.5,1.37-3.39.84-.9,2.08-1.5,3.84-1.67-1.41,1.88-.6,3.13-2,4.61Z"></path><path class="cls-20" d="M110.36,152.47c-.98-.09-1.94.48-2.37.62-.43.14-.9.5-2.13-.11-.22.16-.05.51-.05.51,0,0,.39-.07.78-.02.16.02.3.07.4.12s.34.36.44.48c.81,1.02,1.95,1.72,3.31,1.86,1.36.13,2.93-.31,4.5-1.56-2.57-.23-2.79-1.73-4.87-1.91Z"></path><path class="cls-6" d="M117.3,147.61c-.58.77-1.67,1.03-2.08,1.21-.41.18-.96.23-1.52,1.47-.27.02-.36-.37-.36-.37,0,0,.35-.19.61-.47.11-.12.17-.25.21-.35.04-.1.02-.49,0-.64-.08-1.3.22-2.54.94-3.53.73-1,1.89-1.74,3.61-2.12-1.16,2.03-.22,3.18-1.42,4.81Z"></path><path class="cls-68" d="M118.07,149.13c-.98.02-1.87.71-2.28.91-.41.2-.83.6-2.12.15-.2.18.01.52.02.52,0,0,.37-.13.77-.13.16,0,.3.04.4.07.1.04.38.31.49.42.93.92,2.14,1.47,3.51,1.44,1.36-.03,2.87-.66,4.27-2.09-2.58.08-2.98-1.37-5.06-1.3Z"></path><path class="cls-80" d="M124.37,143.47c-.49.84-1.53,1.22-1.91,1.45-.39.23-.93.34-1.33,1.65-.26.05-.4-.33-.4-.32,0,0,.32-.23.55-.54.09-.13.14-.27.17-.37.03-.1-.04-.48-.07-.63-.24-1.28-.09-2.55.51-3.62.61-1.08,1.67-1.96,3.34-2.55-.92,2.16.16,3.19-.84,4.95Z"></path><path class="cls-29" d="M125.32,144.89c-.97.14-1.77.93-2.15,1.18-.38.24-.75.7-2.09.41-.18.21.08.51.08.51,0,0,.36-.17.75-.22.16-.02.31,0,.41.03.11.02.42.26.54.36,1.04.8,2.3,1.2,3.66,1,1.34-.2,2.77-1.01,3.99-2.59-2.55.39-3.12-1.01-5.18-.68Z"></path><path class="cls-7" d="M130.88,138.5c-.38.89-1.37,1.4-1.73,1.67-.35.28-.88.45-1.12,1.79-.26.09-.44-.28-.44-.28,0,0,.29-.26.48-.6.08-.14.11-.28.12-.39.02-.11-.1-.47-.15-.62-.39-1.24-.4-2.52.07-3.66.47-1.14,1.41-2.14,3-2.93-.65,2.25.55,3.15-.24,5.02Z"></path><path class="cls-11" d="M132,139.8c-.95.26-1.64,1.14-2,1.43-.35.29-.66.79-2.02.66-.15.23.14.5.14.5,0,0,.33-.21.72-.3.16-.04.3-.04.41-.02.11,0,.44.21.58.29,1.12.67,2.43.92,3.75.56,1.31-.36,2.63-1.33,3.65-3.05-2.48.69-3.22-.63-5.23-.06Z"></path><path class="cls-48" d="M136.76,132.79c-.27.93-1.2,1.56-1.51,1.86-.32.32-.81.56-.9,1.92-.25.11-.47-.22-.47-.22,0,0,.26-.3.4-.66.06-.15.07-.3.07-.4s-.16-.46-.22-.6c-.54-1.18-.7-2.45-.37-3.64.33-1.19,1.15-2.3,2.63-3.27-.37,2.31.92,3.06.37,5.01Z"></path><path class="cls-41" d="M138.02,133.95c-.91.37-1.49,1.33-1.81,1.66-.31.32-.56.86-1.93.9-.12.24.2.48.2.48,0,0,.31-.25.68-.39.15-.05.3-.07.41-.07s.47.16.61.22c1.19.53,2.53.62,3.79.1,1.26-.51,2.45-1.64,3.26-3.46-2.38.99-3.27-.23-5.19.57Z"></path><path class="cls-47" d="M141.91,126.42c-.16.95-1,1.69-1.28,2.03-.28.35-.74.65-.66,2.01-.23.14-.49-.16-.49-.16,0,0,.22-.32.32-.7.04-.15.04-.3.02-.41-.01-.11-.21-.44-.29-.57-.67-1.11-.99-2.35-.8-3.56.19-1.22.86-2.42,2.22-3.56-.09,2.34,1.28,2.93.97,4.93Z"></path><path class="cls-39" d="M143.3,127.41c-.85.48-1.32,1.5-1.6,1.86-.27.36-.46.92-1.81,1.12-.09.25.26.45.26.45,0,0,.28-.28.63-.47.14-.07.29-.11.4-.12.11-.01.48.1.63.15,1.25.38,2.58.31,3.77-.35,1.19-.66,2.24-1.92,2.82-3.83-2.25,1.27-3.28.16-5.09,1.19Z"></path><path class="cls-31" d="M146.26,119.47c-.04.97-.79,1.79-1.03,2.17-.23.38-.66.73-.42,2.07-.21.17-.51-.1-.51-.1,0,0,.18-.35.24-.74.02-.16,0-.3-.03-.41-.02-.11-.26-.41-.36-.53-.8-1.02-1.26-2.21-1.23-3.45.04-1.23.56-2.51,1.77-3.8.19,2.33,1.63,2.75,1.56,4.77Z"></path><path class="cls-45" d="M147.76,120.29c-.79.58-1.14,1.65-1.37,2.04-.22.39-.34.97-1.66,1.33-.06.26.31.42.31.42,0,0,.24-.31.57-.54.13-.09.27-.14.38-.17.11-.02.49.05.64.07,1.28.23,2.6,0,3.7-.8,1.1-.8,1.99-2.18,2.34-4.14-2.07,1.53-3.23.56-4.91,1.79Z"></path><path class="cls-70" d="M149.73,112.06c.08.96-.57,1.87-.76,2.28-.19.41-.57.8-.16,2.11-.19.2-.51-.04-.51-.04,0,0,.13-.37.14-.76,0-.16-.04-.3-.07-.4-.04-.1-.31-.37-.42-.49-.92-.92-1.52-2.05-1.64-3.27-.11-1.23.26-2.55,1.3-3.98.47,2.3,1.95,2.53,2.12,4.55Z"></path><path class="cls-66" d="M151.32,112.69c-.72.67-.93,1.77-1.11,2.19-.18.42-.23,1-1.49,1.52-.03.27.35.38.35.38,0,0,.2-.34.5-.6.12-.11.26-.18.36-.21.1-.04.49-.01.65,0,1.3.07,2.58-.31,3.58-1.25,1-.93,1.71-2.4,1.82-4.39-1.88,1.77-3.14.95-4.65,2.38Z"></path><path class="cls-65" d="M152.29,104.27c.19.95-.34,1.93-.47,2.35-.14.43-.47.87.1,2.11-.16.22-.52.03-.52.03,0,0,.09-.38.05-.77-.02-.15-.07-.29-.12-.39-.05-.1-.36-.33-.48-.43-1.02-.8-1.76-1.84-2.02-3.05-.26-1.21-.05-2.57.81-4.11.75,2.22,2.24,2.28,2.66,4.26Z"></path><path class="cls-91" d="M153.94,104.7c-.63.75-.7,1.87-.83,2.31-.12.43-.1,1.02-1.3,1.69,0,.27.4.33.4.33,0,0,.16-.36.42-.66.11-.12.23-.2.33-.25.09-.05.48-.08.64-.09,1.3-.08,2.52-.63,3.4-1.67.88-1.04,1.41-2.59,1.28-4.58-1.65,1.98-3.01,1.32-4.33,2.93Z"></path><path class="cls-100" d="M153.88,96.24c.3.91-.1,1.96-.19,2.39-.08.44-.36.92.35,2.09-.14.23-.52.09-.52.09,0,0,.04-.39-.04-.77-.04-.15-.11-.29-.17-.37-.06-.09-.39-.29-.52-.37-1.11-.67-1.97-1.62-2.37-2.78-.41-1.16-.36-2.54.3-4.18,1.01,2.12,2.49,1.99,3.15,3.91Z"></path><path class="cls-24" d="M155.56,96.46c-.53.82-.47,1.94-.55,2.39-.07.44.02,1.02-1.08,1.83.04.27.44.28.44.28,0,0,.12-.38.34-.71.09-.13.21-.23.3-.29.09-.06.47-.13.62-.16,1.28-.24,2.43-.93,3.17-2.07.74-1.14,1.09-2.74.71-4.7-1.39,2.17-2.83,1.67-3.95,3.43Z"></path><path class="cls-93" d="M154.48,88.06c.42.88.13,1.96.1,2.4-.03.45-.25.95.6,2.03-.11.25-.49.15-.49.15,0,0,0-.39-.14-.76-.05-.14-.14-.27-.21-.35-.07-.08-.42-.24-.56-.3-1.19-.53-2.15-1.37-2.69-2.48-.54-1.11-.67-2.48-.2-4.19,1.25,1.98,2.72,1.67,3.6,3.5Z"></path><path class="cls-101" d="M156.19,88.09c-.43.88-.25,1.98-.26,2.44-.02.45.14,1.02-.85,1.95.07.26.46.23.46.23,0,0,.07-.39.25-.74.07-.14.17-.25.25-.33.08-.07.45-.19.6-.24,1.24-.4,2.3-1.21,2.9-2.44.6-1.22.74-2.85.14-4.75-1.13,2.32-2.6,2-3.5,3.87Z"></path><path class="cls-98" d="M154.1,79.88c.51.82.37,1.93.39,2.37.02.45-.13.98.84,1.94-.08.26-.47.21-.47.21,0,0-.05-.39-.23-.74-.07-.14-.17-.25-.25-.32-.08-.07-.45-.19-.6-.23-1.24-.39-2.3-1.11-2.97-2.14-.67-1.04-.95-2.39-.7-4.14,1.49,1.81,2.9,1.34,3.99,3.05Z"></path><path class="cls-105" d="M155.8,79.7c-.33.93,0,2,.04,2.46.04.45.27.99-.61,2.04.1.25.49.17.49.17,0,0,.02-.39.15-.77.06-.15.14-.27.22-.35.07-.08.42-.24.57-.31,1.19-.54,2.14-1.48,2.59-2.76.45-1.28.4-2.92-.43-4.74-.84,2.44-2.35,2.3-3.02,4.27Z"></path><path class="cls-19" d="M152.76,71.79c.61.75.59,1.87.67,2.3.08.44-.01.98,1.06,1.83-.05.27-.45.26-.45.26,0,0-.1-.38-.31-.7-.09-.13-.2-.23-.29-.29-.09-.06-.47-.13-.62-.16-1.28-.23-2.41-.82-3.2-1.77-.79-.95-1.24-2.25-1.19-4.02,1.69,1.62,3.04.98,4.33,2.54Z"></path><path class="cls-73" d="M154.42,71.41c-.21.95.24,1.98.34,2.43.09.44.38.95-.37,2.1.13.24.51.11.51.11,0,0-.02-.4.07-.78.04-.15.11-.28.17-.38.06-.09.4-.29.53-.37,1.11-.68,1.95-1.72,2.24-3.06.3-1.33.05-2.95-1-4.65-.55,2.52-2.05,2.56-2.49,4.6Z"></path><path class="cls-34" d="M150.44,63.94c.7.67.82,1.78.94,2.21.13.43.11.98,1.28,1.68-.01.27-.41.31-.41.32,0,0-.14-.37-.4-.67-.1-.12-.23-.2-.32-.25-.1-.05-.48-.07-.64-.08-1.3-.08-2.49-.52-3.39-1.36-.9-.85-1.5-2.09-1.67-3.85,1.88,1.41,3.14.6,4.61,2Z"></path><path class="cls-63" d="M152.04,63.35c-.09.98.48,1.94.62,2.37.14.43.5.9-.11,2.13.16.22.52.05.52.05,0,0-.07-.39-.03-.78.02-.16.07-.3.12-.4.05-.1.35-.34.48-.43,1.02-.81,1.72-1.95,1.85-3.31.13-1.35-.31-2.93-1.56-4.5-.23,2.57-1.72,2.79-1.9,4.87Z"></path><path class="cls-56" d="M147.19,56.41c.77.59,1.03,1.67,1.2,2.08.19.41.23.96,1.47,1.52.02.27-.37.37-.37.37,0,0-.19-.35-.47-.61-.12-.11-.25-.17-.35-.21-.1-.04-.49-.01-.64,0-1.29.08-2.54-.21-3.53-.94-1-.73-1.74-1.89-2.12-3.62,2.03,1.17,3.18.22,4.82,1.43Z"></path><path class="cls-62" d="M148.7,55.65c.02.98.71,1.87.91,2.28.19.41.6.83.15,2.13.18.2.52-.02.52-.02,0,0-.12-.38-.12-.77,0-.16.04-.3.08-.41.04-.11.31-.38.42-.49.92-.93,1.47-2.14,1.44-3.51-.03-1.36-.67-2.87-2.09-4.27.08,2.58-1.38,2.98-1.3,5.06Z"></path><path class="cls-13" d="M143.04,49.35c.84.49,1.23,1.53,1.45,1.91.23.39.34.93,1.65,1.33.05.27-.32.4-.32.4,0,0-.23-.32-.54-.55-.13-.09-.27-.14-.37-.17-.11-.03-.49.04-.64.07-1.27.23-2.55.09-3.62-.51-1.08-.6-1.96-1.66-2.55-3.33,2.16.92,3.19-.17,4.95.84Z"></path><path class="cls-59" d="M144.46,48.4c.14.97.93,1.76,1.18,2.15.24.38.7.75.41,2.09.21.17.51-.08.51-.08,0,0-.17-.36-.22-.75-.02-.16,0-.3.03-.41.02-.11.26-.42.36-.54.8-1.03,1.2-2.31,1.01-3.66-.2-1.35-1.01-2.77-2.59-3.99.39,2.55-1,3.12-.68,5.18Z"></path><path class="cls-14" d="M138.08,42.83c.89.38,1.4,1.38,1.67,1.73.28.35.45.88,1.79,1.12.08.26-.27.44-.27.44,0,0-.27-.29-.61-.48-.14-.07-.28-.11-.39-.12-.1-.01-.48.1-.63.15-1.24.39-2.51.4-3.65-.07-1.14-.47-2.15-1.42-2.93-3.01,2.25.65,3.14-.55,5.02.23Z"></path><path class="cls-50" d="M139.37,41.71c.26.94,1.14,1.64,1.43,2,.29.35.78.66.66,2.03.22.15.5-.14.5-.14,0,0-.21-.34-.31-.72-.04-.16-.04-.3-.02-.41.01-.11.21-.44.29-.58.67-1.12.92-2.43.56-3.75-.36-1.31-1.33-2.63-3.05-3.65.7,2.48-.62,3.22-.06,5.23Z"></path><path class="cls-40" d="M132.37,36.95c.93.27,1.55,1.2,1.86,1.52.32.32.55.81,1.91.89.12.25-.22.47-.22.47,0,0-.3-.26-.66-.4-.14-.06-.29-.07-.4-.07-.11,0-.46.16-.6.22-1.18.53-2.45.7-3.64.37-1.19-.33-2.3-1.15-3.27-2.63,2.31.37,3.05-.92,5.01-.37Z"></path><path class="cls-99" d="M133.52,35.69c.37.9,1.32,1.49,1.65,1.81.32.31.86.56.89,1.93.24.12.48-.2.48-.2,0,0-.25-.31-.39-.68-.06-.15-.07-.3-.07-.41s.16-.46.22-.6c.53-1.2.62-2.53.1-3.79-.51-1.26-1.63-2.45-3.46-3.26.99,2.38-.23,3.28.57,5.2Z"></path><path class="cls-113" d="M125.99,31.8c.95.16,1.69,1,2.03,1.28.35.28.65.74,2.01.66.14.23-.16.49-.16.49,0,0-.33-.22-.7-.32-.15-.04-.3-.04-.41-.03-.11.01-.44.22-.57.3-1.11.67-2.35.99-3.57.8-1.22-.19-2.42-.87-3.56-2.22,2.34.09,2.93-1.28,4.93-.97Z"></path><path class="cls-18" d="M126.98,30.41c.48.85,1.49,1.33,1.86,1.6.36.27.92.46,1.12,1.81.26.09.45-.26.45-.26,0,0-.28-.28-.47-.63-.08-.14-.11-.28-.12-.39-.01-.11.1-.48.15-.63.38-1.25.31-2.58-.35-3.77-.66-1.19-1.92-2.23-3.83-2.82,1.27,2.24.16,3.28,1.19,5.09Z"></path><path class="cls-90" d="M119.05,27.46c.97.04,1.79.79,2.17,1.02.38.23.73.66,2.07.42.17.21-.1.51-.1.51,0,0-.35-.18-.73-.23-.16-.02-.3,0-.41.02-.1.02-.41.26-.53.36-1.02.8-2.21,1.26-3.45,1.23-1.23-.04-2.51-.57-3.8-1.78,2.34-.19,2.75-1.63,4.77-1.55Z"></path><path class="cls-103" d="M119.87,25.96c.57.79,1.64,1.14,2.04,1.36.39.23.97.34,1.33,1.67.27.06.42-.31.42-.31,0,0-.32-.24-.54-.57-.09-.13-.14-.27-.17-.38-.02-.11.04-.49.07-.65.23-1.28,0-2.6-.8-3.7-.8-1.1-2.18-1.99-4.15-2.34,1.53,2.08.56,3.24,1.8,4.91Z"></path><path class="cls-71" d="M111.63,23.98c.96-.08,1.88.57,2.28.75.41.19.8.57,2.11.16.2.19-.04.52-.04.52,0,0-.37-.14-.76-.14-.16,0-.3.04-.4.07-.1.03-.37.31-.49.42-.91.92-2.04,1.52-3.27,1.63-1.23.11-2.56-.26-3.99-1.3,2.3-.47,2.53-1.95,4.55-2.12Z"></path><path class="cls-85" d="M112.26,22.39c.67.71,1.77.93,2.19,1.11.42.18,1,.22,1.52,1.49.27.03.38-.36.38-.36,0,0-.34-.2-.6-.5-.11-.12-.18-.25-.21-.35-.04-.1-.02-.49,0-.65.07-1.3-.31-2.58-1.24-3.58-.93-1-2.4-1.71-4.4-1.82,1.77,1.88.95,3.15,2.38,4.66Z"></path><path class="cls-94" d="M103.84,21.42c.95-.19,1.93.34,2.35.48.43.14.87.46,2.11-.09.22.16.02.52.02.52,0,0-.38-.09-.77-.05-.16.02-.3.07-.39.12-.09.05-.33.35-.43.48-.8,1.02-1.85,1.76-3.05,2.02-1.21.26-2.57.05-4.11-.81,2.22-.75,2.28-2.24,4.26-2.66Z"></path><path class="cls-79" d="M104.28,19.77c.75.63,1.87.71,2.31.83.43.13,1.02.1,1.69,1.3.27,0,.33-.4.33-.4,0,0-.36-.16-.66-.42-.12-.1-.2-.23-.25-.32-.05-.1-.08-.48-.09-.64-.09-1.3-.63-2.53-1.67-3.41-1.04-.87-2.59-1.4-4.59-1.27,1.98,1.65,1.32,3,2.93,4.33Z"></path><path class="cls-4" d="M95.8,19.84c.92-.3,1.96.1,2.39.18.44.08.92.36,2.09-.35.23.13.09.51.09.51,0,0-.39-.04-.77.05-.15.03-.28.1-.37.16-.09.07-.29.4-.37.53-.67,1.11-1.62,1.97-2.78,2.38-1.16.41-2.54.36-4.18-.3,2.12-1.01,1.99-2.5,3.91-3.16Z"></path><path class="cls-88" d="M96.03,18.15c.82.54,1.95.47,2.4.55.44.07,1.02-.02,1.83,1.08.27-.03.28-.43.28-.44,0,0-.38-.11-.71-.34-.13-.09-.23-.2-.29-.29-.06-.09-.13-.47-.16-.63-.24-1.28-.93-2.43-2.07-3.18-1.14-.74-2.74-1.08-4.71-.7,2.17,1.39,1.67,2.83,3.43,3.95Z"></path><polygon class="cls-46" points="86.75 13.54 87.95 17 91.6 17.07 88.69 19.28 89.74 22.78 86.75 20.69 83.75 22.78 84.81 19.28 81.89 17.07 85.55 17 86.75 13.54"></polygon><path class="cls-72" d="M62.9,45.93c-.13-.27-.28-.54-.44-.8-.16-.26-.31-.47-.45-.62-.23-.25-.45-.37-.68-.39-.23-.01-.47.07-.72.26-.14-.16-.29-.31-.43-.47.97-.83,1.94-1.66,2.93-2.49.14.16.29.31.43.47-.14.18-.22.37-.25.57-.03.2,0,.42.06.68.07.25.22.65.46,1.18,1.5,3.34,2.97,6.68,4.41,10.03-.55.46-1.09.93-1.63,1.39-2.49-1.79-5.01-3.57-7.56-5.31,1.43,2.74,2.83,5.48,4.21,8.23-.56.49-1.12.99-1.68,1.49-3.03-2.04-6.12-4.04-9.25-6.01-.46-.29-.8-.47-1.01-.55-.22-.08-.41-.11-.57-.1-.16.01-.33.07-.51.16-.15-.15-.29-.3-.44-.45,1.19-1.11,2.4-2.21,3.61-3.3.15.15.29.31.44.46-.21.24-.32.46-.33.67-.01.21.08.41.26.6.23.25.66.57,1.28.97,1.91,1.26,3.8,2.54,5.67,3.83-1.53-2.97-3.09-5.93-4.69-8.88.52-.46,1.03-.91,1.55-1.37,2.78,1.91,5.53,3.85,8.23,5.82-.95-2.02-1.92-4.05-2.89-6.06ZM73.73,48.71c.1.2.19.38.29.55.09.17.19.3.27.39.09.09.18.16.28.21.1.04.22.07.36.07.14,0,.3-.01.48-.05.09.19.18.38.27.56-1.45.67-2.89,1.35-4.33,2.04-.09-.19-.19-.37-.28-.56.17-.15.3-.29.39-.41.09-.12.13-.25.13-.4,0-.14-.04-.31-.11-.5-.07-.19-.18-.42-.31-.69-1.23-2.45-2.48-4.89-3.75-7.33-.14-.27-.26-.49-.37-.66-.11-.17-.22-.3-.34-.38-.12-.09-.26-.14-.41-.15-.16,0-.35,0-.6.05-.1-.19-.2-.37-.29-.56,1.47-.71,2.95-1.41,4.43-2.11.1.19.19.37.29.56-.2.17-.34.32-.41.44-.07.12-.11.25-.12.38,0,.13.03.28.09.45.06.17.17.42.34.74,1.26,2.44,2.49,4.89,3.7,7.35ZM85,34.89c.04.2.09.41.13.61-.23.13-.39.23-.48.3-.09.07-.16.17-.21.27-.05.11-.08.26-.07.45,0,.2.04.49.13.88.72,3.45,1.42,6.91,2.1,10.37-.77.14-1.53.29-2.3.43-1.85-2.15-3.72-4.29-5.63-6.42-.77-.86-1.36-1.54-1.75-2.05-.03,0-.06.01-.08.02.36,1.32.71,2.71,1.04,4.19.22.99.44,1.99.66,2.98.1.46.19.78.28.96.09.18.2.31.34.39.14.08.38.14.73.16.04.2.09.41.13.61-1.13.23-2.27.47-3.4.71-.05-.2-.09-.41-.14-.61.21-.11.37-.21.48-.32.11-.1.19-.22.22-.36.03-.14.04-.31.02-.5-.02-.2-.07-.44-.13-.73-.6-2.67-1.2-5.34-1.82-8.01-.11-.46-.2-.78-.28-.95-.08-.17-.2-.3-.35-.39-.15-.09-.4-.14-.75-.16-.05-.2-.1-.41-.14-.61,1.25-.27,2.5-.53,3.75-.78,1.53,1.68,3.03,3.36,4.52,5.05.28.32.65.76,1.1,1.31.45.55.86,1.08,1.22,1.57.05,0,.1-.02.15-.03-.37-1.47-.74-3.08-1.11-4.83-.12-.58-.24-1.15-.37-1.73-.08-.4-.16-.69-.23-.86-.07-.17-.15-.3-.23-.38-.08-.08-.19-.14-.31-.18-.12-.04-.32-.07-.59-.1-.04-.2-.09-.41-.13-.61,1.17-.23,2.35-.45,3.53-.67ZM101.01,36.07c-.03.21-.06.41-.09.62-.26.05-.45.09-.56.14-.11.04-.21.11-.29.19-.08.08-.16.22-.22.41-.06.19-.13.48-.18.87-.49,3.49-.97,6.98-1.44,10.47-.77-.1-1.55-.2-2.32-.29-1.06-2.61-2.13-5.21-3.23-7.81-.45-1.05-.77-1.88-.97-2.47-.03,0-.06,0-.08,0-.1,1.36-.24,2.79-.42,4.29-.12,1.01-.24,2.02-.36,3.03-.05.47-.07.8-.05,1,.02.19.09.35.2.47.11.12.32.25.64.37-.02.21-.05.41-.07.62-1.15-.13-2.31-.25-3.47-.37.02-.21.05-.41.07-.62.23-.04.42-.09.56-.15.14-.06.25-.15.33-.28.08-.12.14-.28.18-.47.04-.19.08-.44.11-.73.31-2.72.62-5.43.94-8.15.06-.47.07-.8.05-.98-.02-.18-.09-.34-.2-.47-.11-.13-.33-.26-.66-.38.02-.21.05-.41.07-.62,1.28.13,2.56.27,3.83.41.87,2.06,1.73,4.11,2.58,6.17.16.39.36.91.61,1.57.24.66.46,1.28.64,1.87.05,0,.1.01.15.02.13-1.51.32-3.15.56-4.92.08-.58.16-1.17.24-1.75.06-.41.08-.7.07-.89,0-.19-.04-.33-.09-.43-.05-.1-.13-.19-.23-.27-.1-.08-.28-.17-.52-.28.03-.21.06-.41.08-.62,1.19.15,2.38.3,3.56.45ZM113.66,41.04c-.45.91-.89,1.82-1.33,2.73-.39-.17-.77-.35-1.16-.52.07-.63.09-1.07.05-1.32-.04-.25-.12-.47-.25-.66-.13-.19-.41-.38-.85-.58-.62-.27-1.25-.54-1.87-.81-.66,1.38-1.3,2.76-1.95,4.15.38.16.75.32,1.12.49.25.11.46.16.64.15.18-.01.35-.08.52-.2.17-.13.38-.35.63-.66.32.14.64.28.96.42-.56,1.16-1.11,2.33-1.65,3.5-.32-.14-.64-.28-.95-.42.08-.37.11-.66.1-.88-.01-.22-.07-.39-.17-.53-.1-.13-.28-.26-.54-.37-.37-.16-.75-.32-1.12-.48-.71,1.54-1.42,3.08-2.12,4.63.61.26,1.22.52,1.82.79.2.09.37.14.51.18.15.03.29.04.42.02.13-.02.28-.06.43-.12.15-.07.29-.15.42-.24.13-.09.29-.23.47-.4.18-.17.4-.41.67-.73.38.17.77.34,1.15.51-.55,1.02-1.09,2.05-1.63,3.08-2.72-1.21-5.47-2.4-8.24-3.56.08-.19.17-.38.25-.57.23.03.43.04.58.02.15-.02.28-.07.39-.16.11-.09.22-.23.32-.4.1-.18.21-.4.33-.68,1.12-2.5,2.25-4.99,3.41-7.48.13-.27.23-.5.3-.69.07-.19.1-.36.1-.5,0-.14-.06-.27-.15-.4-.09-.12-.23-.26-.42-.41.09-.19.18-.38.27-.57,2.87,1.21,5.71,2.44,8.53,3.71ZM112.82,56.42c-1.2-1.02-2.41-2.04-3.63-3.05.14-.16.27-.32.41-.48.21.09.39.16.54.18.15.03.29.01.42-.05.13-.06.27-.16.42-.3.15-.14.32-.33.52-.56,1.81-2.07,3.64-4.13,5.5-6.17.2-.22.37-.41.49-.58.13-.16.21-.31.25-.45.04-.14.03-.28-.01-.42-.05-.14-.14-.31-.27-.51.14-.16.29-.31.43-.47,1.37,1.15,2.73,2.31,4.07,3.48.54.47.97.91,1.28,1.32.31.41.53.82.66,1.22.11.34.16.68.14,1.02-.02.34-.11.69-.27,1.03-.16.34-.4.69-.72,1.04-.43.46-.86.78-1.32.97-.46.19-.92.28-1.38.26-.46-.01-1.01-.12-1.63-.31-.02.02-.04.05-.06.07.2.44.3.89.29,1.33,0,.44-.1.94-.27,1.48-.15.45-.29.89-.44,1.34-.2.6-.3,1.08-.3,1.46,0,.38.1.71.31.98-.14.16-.28.31-.42.47-.86-.76-1.73-1.52-2.6-2.27.07-.61.27-1.43.61-2.47.18-.56.37-1.12.55-1.68.16-.5.25-.87.28-1.12.02-.25,0-.46-.07-.62-.07-.16-.23-.35-.49-.57-.13-.11-.27-.23-.4-.34-.68.77-1.36,1.53-2.04,2.3-.31.36-.52.62-.61.79-.09.17-.13.34-.12.5.02.16.12.38.31.66-.14.16-.28.32-.41.47ZM120.03,46.9c-1.21,1.31-2.4,2.62-3.59,3.94.23.19.46.39.68.58.37.32.72.53,1.05.63.33.1.65.13.95.06.3-.06.6-.19.87-.39.28-.2.55-.44.82-.74.59-.64.88-1.25.89-1.82,0-.57-.29-1.11-.87-1.62-.4-.34-.66-.56-.8-.66Z"></path><path class="cls-16" d="M62.91,45.28c-.13-.27-.28-.54-.44-.8-.16-.26-.31-.47-.45-.62-.23-.25-.45-.37-.68-.39-.23-.01-.47.07-.72.26-.14-.16-.29-.31-.43-.47.97-.83,1.95-1.66,2.93-2.49.14.16.29.31.43.47-.14.18-.22.37-.25.57-.03.2,0,.42.06.68.07.25.22.65.46,1.18,1.5,3.34,2.98,6.68,4.41,10.03-.55.46-1.09.93-1.64,1.39-2.49-1.79-5.01-3.57-7.57-5.31,1.43,2.74,2.84,5.48,4.22,8.23-.56.49-1.12.99-1.68,1.49-3.04-2.04-6.13-4.04-9.26-6.01-.46-.29-.8-.47-1.02-.55-.22-.08-.41-.11-.57-.1-.16.01-.34.07-.51.16-.15-.15-.29-.3-.44-.45,1.2-1.11,2.4-2.21,3.62-3.3.15.15.29.31.44.46-.21.24-.32.46-.33.67-.01.21.08.41.26.6.23.25.66.57,1.28.97,1.91,1.26,3.81,2.54,5.68,3.83-1.53-2.97-3.1-5.93-4.69-8.88.52-.46,1.04-.91,1.56-1.37,2.79,1.91,5.53,3.85,8.24,5.82-.95-2.02-1.92-4.05-2.9-6.06ZM73.76,48.06c.1.2.2.38.29.55.1.17.19.3.27.39.09.09.18.16.28.21.1.04.22.07.36.07.14,0,.3-.01.48-.05.09.19.18.38.28.56-1.45.67-2.9,1.35-4.33,2.04-.09-.19-.19-.37-.28-.56.18-.15.3-.29.39-.41.08-.12.13-.25.13-.4,0-.14-.04-.31-.11-.5-.07-.19-.18-.42-.31-.69-1.23-2.45-2.48-4.89-3.75-7.33-.14-.27-.26-.49-.37-.66-.11-.17-.22-.3-.34-.38-.12-.09-.26-.14-.41-.15-.16,0-.36,0-.6.05-.1-.19-.2-.37-.3-.56,1.47-.71,2.95-1.41,4.44-2.11.1.19.19.37.29.56-.2.17-.34.32-.41.44-.07.12-.11.25-.12.38,0,.13.03.28.09.45.06.17.18.42.34.74,1.26,2.44,2.49,4.89,3.71,7.35ZM85.04,34.24c.04.2.08.41.13.61-.23.13-.39.23-.49.3-.09.07-.16.17-.21.27-.05.11-.08.26-.07.45,0,.2.05.49.13.88.72,3.45,1.42,6.91,2.11,10.37-.77.14-1.54.29-2.3.43-1.85-2.15-3.73-4.29-5.64-6.42-.77-.86-1.36-1.54-1.75-2.05-.03,0-.06.01-.08.02.36,1.32.71,2.71,1.04,4.19.22.99.44,1.99.66,2.98.1.46.2.78.28.96.09.18.2.31.34.39.14.08.38.14.73.16.04.2.09.41.13.61-1.14.23-2.27.47-3.4.71-.05-.2-.09-.41-.14-.61.21-.11.37-.21.48-.32.11-.1.19-.22.22-.36.04-.14.04-.31.02-.5-.03-.19-.07-.44-.13-.73-.6-2.67-1.2-5.34-1.82-8.01-.11-.46-.2-.78-.28-.95-.08-.17-.2-.3-.35-.39-.15-.09-.4-.14-.75-.16-.05-.2-.1-.41-.14-.61,1.25-.27,2.5-.53,3.76-.78,1.53,1.68,3.04,3.36,4.53,5.06.28.32.64.76,1.1,1.31.45.55.86,1.08,1.22,1.57.05,0,.1-.02.15-.03-.37-1.47-.74-3.08-1.11-4.83-.12-.58-.24-1.15-.37-1.73-.09-.4-.16-.69-.23-.86-.07-.17-.15-.3-.23-.38-.09-.08-.19-.14-.31-.18-.12-.04-.32-.07-.59-.1-.04-.2-.09-.41-.13-.61,1.18-.23,2.35-.45,3.53-.67ZM101.09,35.42c-.03.21-.06.41-.09.62-.26.05-.45.09-.56.14-.11.04-.21.11-.3.19-.09.08-.16.22-.22.41-.07.19-.13.48-.18.87-.49,3.49-.97,6.98-1.45,10.47-.77-.1-1.55-.2-2.32-.29-1.06-2.61-2.14-5.21-3.24-7.81-.45-1.06-.77-1.88-.97-2.47-.03,0-.06,0-.09,0-.1,1.36-.24,2.79-.42,4.29-.12,1.01-.24,2.02-.36,3.03-.05.47-.07.8-.05,1,.02.19.09.35.2.47.11.12.32.25.64.37-.02.21-.05.41-.07.62-1.16-.13-2.31-.25-3.47-.37.02-.21.05-.41.07-.62.23-.04.42-.09.56-.15.14-.06.25-.15.33-.28.08-.12.14-.28.18-.47.04-.19.08-.44.11-.73.31-2.72.62-5.43.94-8.15.06-.47.07-.8.05-.98-.02-.18-.09-.34-.2-.47-.12-.13-.33-.26-.66-.38.02-.21.05-.41.07-.62,1.28.13,2.56.27,3.84.41.88,2.06,1.74,4.11,2.58,6.17.16.39.36.91.61,1.57.25.66.46,1.28.64,1.87.05,0,.1.01.15.02.13-1.51.32-3.15.56-4.92.08-.58.16-1.17.24-1.75.05-.41.08-.7.07-.89,0-.19-.04-.33-.09-.43-.05-.1-.13-.19-.23-.27-.1-.08-.28-.17-.52-.28.03-.21.06-.41.08-.62,1.19.15,2.38.3,3.57.45ZM113.75,40.39c-.45.91-.89,1.82-1.33,2.73-.39-.17-.78-.35-1.16-.52.07-.63.09-1.07.05-1.32-.04-.25-.12-.47-.25-.66-.13-.19-.41-.38-.85-.58-.62-.27-1.25-.54-1.87-.81-.66,1.38-1.31,2.76-1.95,4.15.38.16.75.32,1.13.49.25.11.46.16.64.15.18-.01.35-.08.52-.2.17-.13.38-.34.64-.66.32.14.64.28.96.42-.56,1.16-1.11,2.33-1.66,3.5-.32-.14-.64-.28-.95-.42.08-.37.11-.66.1-.88-.01-.22-.07-.39-.17-.53-.1-.13-.28-.26-.55-.37-.37-.16-.75-.32-1.12-.49-.71,1.54-1.42,3.08-2.12,4.62.61.26,1.22.52,1.83.79.2.09.37.14.51.18.15.03.29.04.42.02.13-.02.28-.06.43-.12.15-.07.29-.15.42-.24.13-.09.29-.23.47-.4.18-.17.4-.41.68-.73.38.17.77.34,1.15.51-.55,1.02-1.09,2.05-1.63,3.08-2.73-1.22-5.48-2.4-8.26-3.56.08-.19.17-.38.25-.57.23.03.43.04.58.02.15-.02.28-.07.4-.16.11-.09.22-.23.32-.4.1-.18.21-.4.34-.68,1.12-2.5,2.26-4.99,3.42-7.48.13-.27.23-.5.3-.69.07-.19.1-.36.1-.5,0-.14-.05-.27-.15-.4-.09-.12-.23-.26-.42-.41.09-.19.18-.38.27-.57,2.87,1.21,5.72,2.44,8.55,3.71ZM112.92,55.77c-1.2-1.02-2.42-2.04-3.64-3.05.14-.16.27-.32.41-.48.21.09.4.16.54.18.15.03.29.01.42-.05.13-.06.27-.16.42-.3.15-.14.32-.32.52-.56,1.81-2.07,3.64-4.13,5.51-6.17.2-.22.37-.41.49-.58.13-.16.21-.31.25-.45.04-.14.03-.28-.01-.42-.05-.14-.14-.31-.27-.51.14-.16.29-.31.43-.47,1.37,1.15,2.73,2.31,4.08,3.48.55.47.97.91,1.28,1.32.31.41.53.82.66,1.23.11.34.16.68.14,1.02-.02.34-.11.69-.27,1.03-.16.34-.4.69-.72,1.04-.43.46-.87.78-1.33.97-.46.19-.92.28-1.39.26-.47-.01-1.01-.12-1.63-.31-.02.02-.04.05-.06.07.2.44.3.89.29,1.33,0,.44-.1.94-.27,1.48-.15.45-.29.89-.44,1.34-.2.6-.29,1.08-.3,1.46,0,.38.1.71.31.98-.14.16-.28.31-.42.47-.86-.76-1.73-1.52-2.6-2.27.07-.61.27-1.43.61-2.47.18-.56.37-1.12.55-1.68.16-.5.25-.87.28-1.12.02-.25,0-.46-.07-.62-.07-.16-.23-.35-.49-.57-.13-.11-.27-.23-.4-.34-.69.77-1.37,1.53-2.04,2.3-.31.36-.52.62-.61.79-.09.17-.13.34-.12.5.02.16.12.38.31.66-.14.16-.28.32-.41.47ZM120.14,46.26c-1.21,1.31-2.41,2.62-3.6,3.94.23.19.46.39.69.59.37.32.72.53,1.05.63.33.1.65.13.95.07.3-.06.6-.19.87-.39.28-.2.55-.44.82-.74.59-.64.89-1.24.89-1.82,0-.57-.29-1.11-.87-1.62-.4-.34-.67-.56-.8-.66Z"></path><path class="cls-61" d="M64.17,93.54c-.7,2.38-1.54,5.41-1.98,7.26h-17.78v-1.19c2.33-2.29,4.88-4.88,7.13-7.39,3.3-3.7,4.8-6.69,4.8-10.12,0-3.12-1.54-5.15-4.53-5.15-2.64,0-4.53,1.85-5.99,3.92l-1.32-1.1,2.82-4.18c1.5-1.76,3.96-2.73,6.73-2.73,4.4,0,8.1,2.99,8.1,7.88,0,3.43-1.32,5.94-5.81,10.08-1.72,1.58-4.18,3.87-5.76,5.24h7.39c2.73,0,3.26-.18,4.88-2.95l1.32.44ZM76.4,72.86c7.48,0,9.95,7.88,9.95,14.21s-2.46,14.26-9.95,14.26-9.99-7.88-9.99-14.21,2.64-14.26,9.99-14.26ZM76.31,74.75c-2.99,0-3.7,6.34-3.7,12.19s.92,12.5,3.83,12.5,3.65-6.34,3.65-12.45-.88-12.23-3.78-12.23ZM108.79,93.54c-.7,2.38-1.54,5.41-1.98,7.26h-17.78v-1.19c2.33-2.29,4.88-4.88,7.13-7.39,3.3-3.7,4.8-6.69,4.8-10.12,0-3.12-1.54-5.15-4.53-5.15-2.64,0-4.53,1.85-5.99,3.92l-1.32-1.1,2.82-4.18c1.5-1.76,3.96-2.73,6.73-2.73,4.4,0,8.1,2.99,8.1,7.88,0,3.43-1.32,5.94-5.81,10.08-1.72,1.58-4.18,3.87-5.76,5.24h7.39c2.73,0,3.26-.18,4.88-2.95l1.32.44ZM120.09,83.9c1.06-.53,2.2-.84,2.9-.84,4.8,0,8.23,3.26,8.23,8.27,0,5.54-4.27,9.99-10.12,9.99s-9.99-4.22-9.99-11.27c0-8.98,6.82-14.26,11.93-16.11,1.32-.48,4.66-1.14,6.56-1.36l.26,1.76c-1.28.31-3.17.84-4.71,1.58-2.24,1.1-5.99,3.56-7.31,9.02l2.25-1.06ZM120.36,86.24c-1.06,0-1.94.18-2.82.48-.18.75-.31,2.38-.31,3.56,0,5.81,1.94,9.15,4.8,9.15s3.39-3.43,3.39-6.21c0-4.14-2.07-7-5.06-7Z"></path><path class="cls-112" d="M63.17,92.54c-.7,2.38-1.54,5.41-1.98,7.26h-17.78v-1.19c2.33-2.29,4.88-4.88,7.13-7.39,3.3-3.7,4.8-6.69,4.8-10.12,0-3.12-1.54-5.15-4.53-5.15-2.64,0-4.53,1.85-5.99,3.92l-1.32-1.1,2.82-4.18c1.5-1.76,3.96-2.73,6.73-2.73,4.4,0,8.1,2.99,8.1,7.88,0,3.43-1.32,5.94-5.81,10.08-1.72,1.58-4.18,3.87-5.76,5.24h7.39c2.73,0,3.26-.18,4.88-2.95l1.32.44ZM75.4,71.86c7.48,0,9.95,7.88,9.95,14.21s-2.46,14.26-9.95,14.26-9.99-7.88-9.99-14.21,2.64-14.26,9.99-14.26ZM75.31,73.75c-2.99,0-3.7,6.34-3.7,12.19s.92,12.5,3.83,12.5,3.65-6.34,3.65-12.45-.88-12.23-3.78-12.23ZM107.79,92.54c-.7,2.38-1.54,5.41-1.98,7.26h-17.78v-1.19c2.33-2.29,4.88-4.88,7.13-7.39,3.3-3.7,4.8-6.69,4.8-10.12,0-3.12-1.54-5.15-4.53-5.15-2.64,0-4.53,1.85-5.99,3.92l-1.32-1.1,2.82-4.18c1.5-1.76,3.96-2.73,6.73-2.73,4.4,0,8.1,2.99,8.1,7.88,0,3.43-1.32,5.94-5.81,10.08-1.72,1.58-4.18,3.87-5.76,5.24h7.39c2.73,0,3.26-.18,4.88-2.95l1.32.44ZM119.09,82.9c1.06-.53,2.2-.84,2.9-.84,4.8,0,8.23,3.26,8.23,8.27,0,5.54-4.27,9.99-10.12,9.99s-9.99-4.22-9.99-11.27c0-8.98,6.82-14.26,11.93-16.11,1.32-.48,4.66-1.14,6.56-1.36l.26,1.76c-1.28.31-3.17.84-4.71,1.58-2.24,1.1-5.99,3.56-7.31,9.02l2.25-1.06ZM119.36,85.24c-1.06,0-1.94.18-2.82.48-.18.75-.31,2.38-.31,3.56,0,5.81,1.94,9.15,4.8,9.15s3.39-3.43,3.39-6.21c0-4.14-2.07-7-5.06-7Z"></path></g></svg>